<svg xmlns="http://www.w3.org/2000/svg" xmlns:xlink="http://www.w3.org/1999/xlink" width="1920" zoomAndPan="magnify" viewBox="0 0 1440 225" height="300" preserveAspectRatio="xMidYMid meet" version="1.0"><defs><g/><clipPath id="5b19a42790"><path d="M 711.8125 48.035156 L 1269.078125 48.035156 L 1269.078125 199.347656 L 711.8125 199.347656 Z M 711.8125 48.035156 " clip-rule="nonzero"/></clipPath><clipPath id="3bc39a4675"><path d="M 730.304688 48.035156 L 1250.585938 48.035156 C 1255.492188 48.035156 1260.195312 49.984375 1263.664062 53.453125 C 1267.132812 56.921875 1269.078125 61.625 1269.078125 66.53125 L 1269.078125 180.851562 C 1269.078125 185.757812 1267.132812 190.460938 1263.664062 193.929688 C 1260.195312 197.398438 1255.492188 199.347656 1250.585938 199.347656 L 730.304688 199.347656 C 725.398438 199.347656 720.695312 197.398438 717.226562 193.929688 C 713.757812 190.460938 711.8125 185.757812 711.8125 180.851562 L 711.8125 66.53125 C 711.8125 61.625 713.757812 56.921875 717.226562 53.453125 C 720.695312 49.984375 725.398438 48.035156 730.304688 48.035156 Z M 730.304688 48.035156 " clip-rule="nonzero"/></clipPath><linearGradient x1="0.00545862" gradientTransform="matrix(0.591054, 0, 0, 0.591054, 711.80756, 48.03646)" y1="128" x2="942.838994" gradientUnits="userSpaceOnUse" y2="128" id="2f4ce6f82d"><stop stop-opacity="1" stop-color="rgb(100%, 87.098694%, 34.899902%)" offset="0"/><stop stop-opacity="1" stop-color="rgb(100%, 86.981201%, 34.880066%)" offset="0.0078125"/><stop stop-opacity="1" stop-color="rgb(100%, 86.74469%, 34.843445%)" offset="0.015625"/><stop stop-opacity="1" stop-color="rgb(100%, 86.508179%, 34.806824%)" offset="0.0234375"/><stop stop-opacity="1" stop-color="rgb(100%, 86.273193%, 34.770203%)" offset="0.03125"/><stop stop-opacity="1" stop-color="rgb(100%, 86.036682%, 34.733582%)" offset="0.0390625"/><stop stop-opacity="1" stop-color="rgb(100%, 85.801697%, 34.69696%)" offset="0.046875"/><stop stop-opacity="1" stop-color="rgb(100%, 85.565186%, 34.660339%)" offset="0.0546875"/><stop stop-opacity="1" stop-color="rgb(100%, 85.328674%, 34.623718%)" offset="0.0625"/><stop stop-opacity="1" stop-color="rgb(100%, 85.093689%, 34.587097%)" offset="0.0703125"/><stop stop-opacity="1" stop-color="rgb(100%, 84.857178%, 34.550476%)" offset="0.078125"/><stop stop-opacity="1" stop-color="rgb(100%, 84.620667%, 34.513855%)" offset="0.0859375"/><stop stop-opacity="1" stop-color="rgb(100%, 84.385681%, 34.477234%)" offset="0.09375"/><stop stop-opacity="1" stop-color="rgb(100%, 84.14917%, 34.440613%)" offset="0.101562"/><stop stop-opacity="1" stop-color="rgb(100%, 83.914185%, 34.403992%)" offset="0.109375"/><stop stop-opacity="1" stop-color="rgb(100%, 83.677673%, 34.367371%)" offset="0.117188"/><stop stop-opacity="1" stop-color="rgb(100%, 83.441162%, 34.33075%)" offset="0.125"/><stop stop-opacity="1" stop-color="rgb(100%, 83.206177%, 34.292603%)" offset="0.132812"/><stop stop-opacity="1" stop-color="rgb(100%, 82.969666%, 34.255981%)" offset="0.140625"/><stop stop-opacity="1" stop-color="rgb(100%, 82.733154%, 34.21936%)" offset="0.148437"/><stop stop-opacity="1" stop-color="rgb(100%, 82.498169%, 34.182739%)" offset="0.15625"/><stop stop-opacity="1" stop-color="rgb(100%, 82.261658%, 34.146118%)" offset="0.164062"/><stop stop-opacity="1" stop-color="rgb(100%, 82.026672%, 34.109497%)" offset="0.171875"/><stop stop-opacity="1" stop-color="rgb(100%, 81.790161%, 34.072876%)" offset="0.179687"/><stop stop-opacity="1" stop-color="rgb(100%, 81.55365%, 34.036255%)" offset="0.1875"/><stop stop-opacity="1" stop-color="rgb(100%, 81.318665%, 33.999634%)" offset="0.195312"/><stop stop-opacity="1" stop-color="rgb(100%, 81.082153%, 33.963013%)" offset="0.203125"/><stop stop-opacity="1" stop-color="rgb(100%, 80.845642%, 33.926392%)" offset="0.210937"/><stop stop-opacity="1" stop-color="rgb(100%, 80.610657%, 33.889771%)" offset="0.21875"/><stop stop-opacity="1" stop-color="rgb(100%, 80.374146%, 33.853149%)" offset="0.226562"/><stop stop-opacity="1" stop-color="rgb(100%, 80.13916%, 33.816528%)" offset="0.234375"/><stop stop-opacity="1" stop-color="rgb(100%, 79.902649%, 33.779907%)" offset="0.242187"/><stop stop-opacity="1" stop-color="rgb(100%, 79.666138%, 33.743286%)" offset="0.25"/><stop stop-opacity="1" stop-color="rgb(100%, 79.431152%, 33.705139%)" offset="0.257813"/><stop stop-opacity="1" stop-color="rgb(100%, 79.194641%, 33.668518%)" offset="0.265625"/><stop stop-opacity="1" stop-color="rgb(100%, 78.95813%, 33.631897%)" offset="0.273438"/><stop stop-opacity="1" stop-color="rgb(100%, 78.723145%, 33.595276%)" offset="0.28125"/><stop stop-opacity="1" stop-color="rgb(100%, 78.486633%, 33.558655%)" offset="0.289062"/><stop stop-opacity="1" stop-color="rgb(100%, 78.251648%, 33.522034%)" offset="0.296875"/><stop stop-opacity="1" stop-color="rgb(100%, 78.015137%, 33.485413%)" offset="0.304688"/><stop stop-opacity="1" stop-color="rgb(100%, 77.778625%, 33.448792%)" offset="0.3125"/><stop stop-opacity="1" stop-color="rgb(100%, 77.54364%, 33.41217%)" offset="0.320312"/><stop stop-opacity="1" stop-color="rgb(100%, 77.307129%, 33.375549%)" offset="0.328125"/><stop stop-opacity="1" stop-color="rgb(100%, 77.070618%, 33.338928%)" offset="0.335938"/><stop stop-opacity="1" stop-color="rgb(100%, 76.835632%, 33.302307%)" offset="0.34375"/><stop stop-opacity="1" stop-color="rgb(100%, 76.599121%, 33.265686%)" offset="0.351562"/><stop stop-opacity="1" stop-color="rgb(100%, 76.364136%, 33.229065%)" offset="0.359375"/><stop stop-opacity="1" stop-color="rgb(100%, 76.127625%, 33.192444%)" offset="0.367188"/><stop stop-opacity="1" stop-color="rgb(100%, 75.891113%, 33.154297%)" offset="0.375"/><stop stop-opacity="1" stop-color="rgb(100%, 75.656128%, 33.117676%)" offset="0.382813"/><stop stop-opacity="1" stop-color="rgb(100%, 75.419617%, 33.081055%)" offset="0.390625"/><stop stop-opacity="1" stop-color="rgb(100%, 75.183105%, 33.044434%)" offset="0.398438"/><stop stop-opacity="1" stop-color="rgb(100%, 74.94812%, 33.007812%)" offset="0.40625"/><stop stop-opacity="1" stop-color="rgb(100%, 74.711609%, 32.971191%)" offset="0.414063"/><stop stop-opacity="1" stop-color="rgb(100%, 74.476624%, 32.93457%)" offset="0.421875"/><stop stop-opacity="1" stop-color="rgb(100%, 74.240112%, 32.897949%)" offset="0.429688"/><stop stop-opacity="1" stop-color="rgb(100%, 74.003601%, 32.861328%)" offset="0.4375"/><stop stop-opacity="1" stop-color="rgb(100%, 73.768616%, 32.824707%)" offset="0.445313"/><stop stop-opacity="1" stop-color="rgb(100%, 73.532104%, 32.788086%)" offset="0.453125"/><stop stop-opacity="1" stop-color="rgb(100%, 73.295593%, 32.751465%)" offset="0.460938"/><stop stop-opacity="1" stop-color="rgb(100%, 73.060608%, 32.714844%)" offset="0.46875"/><stop stop-opacity="1" stop-color="rgb(100%, 72.824097%, 32.678223%)" offset="0.476563"/><stop stop-opacity="1" stop-color="rgb(100%, 72.589111%, 32.641602%)" offset="0.484375"/><stop stop-opacity="1" stop-color="rgb(100%, 72.3526%, 32.60498%)" offset="0.492188"/><stop stop-opacity="1" stop-color="rgb(100%, 72.116089%, 32.566833%)" offset="0.5"/><stop stop-opacity="1" stop-color="rgb(100%, 71.881104%, 32.530212%)" offset="0.507812"/><stop stop-opacity="1" stop-color="rgb(100%, 71.644592%, 32.493591%)" offset="0.515625"/><stop stop-opacity="1" stop-color="rgb(100%, 71.408081%, 32.45697%)" offset="0.523438"/><stop stop-opacity="1" stop-color="rgb(100%, 71.173096%, 32.420349%)" offset="0.53125"/><stop stop-opacity="1" stop-color="rgb(100%, 70.936584%, 32.383728%)" offset="0.539063"/><stop stop-opacity="1" stop-color="rgb(100%, 70.701599%, 32.347107%)" offset="0.546875"/><stop stop-opacity="1" stop-color="rgb(100%, 70.465088%, 32.310486%)" offset="0.554688"/><stop stop-opacity="1" stop-color="rgb(100%, 70.228577%, 32.273865%)" offset="0.5625"/><stop stop-opacity="1" stop-color="rgb(100%, 69.993591%, 32.237244%)" offset="0.570313"/><stop stop-opacity="1" stop-color="rgb(100%, 69.75708%, 32.200623%)" offset="0.578125"/><stop stop-opacity="1" stop-color="rgb(100%, 69.522095%, 32.164001%)" offset="0.585938"/><stop stop-opacity="1" stop-color="rgb(100%, 69.285583%, 32.12738%)" offset="0.59375"/><stop stop-opacity="1" stop-color="rgb(100%, 69.049072%, 32.090759%)" offset="0.601562"/><stop stop-opacity="1" stop-color="rgb(100%, 68.814087%, 32.054138%)" offset="0.609375"/><stop stop-opacity="1" stop-color="rgb(100%, 68.577576%, 32.017517%)" offset="0.617188"/><stop stop-opacity="1" stop-color="rgb(100%, 68.341064%, 31.97937%)" offset="0.625"/><stop stop-opacity="1" stop-color="rgb(100%, 68.106079%, 31.942749%)" offset="0.632813"/><stop stop-opacity="1" stop-color="rgb(100%, 67.869568%, 31.906128%)" offset="0.640625"/><stop stop-opacity="1" stop-color="rgb(100%, 67.634583%, 31.869507%)" offset="0.648438"/><stop stop-opacity="1" stop-color="rgb(100%, 67.398071%, 31.832886%)" offset="0.65625"/><stop stop-opacity="1" stop-color="rgb(100%, 67.16156%, 31.796265%)" offset="0.664063"/><stop stop-opacity="1" stop-color="rgb(100%, 66.926575%, 31.759644%)" offset="0.671875"/><stop stop-opacity="1" stop-color="rgb(100%, 66.690063%, 31.723022%)" offset="0.679688"/><stop stop-opacity="1" stop-color="rgb(100%, 66.453552%, 31.686401%)" offset="0.6875"/><stop stop-opacity="1" stop-color="rgb(100%, 66.218567%, 31.64978%)" offset="0.695312"/><stop stop-opacity="1" stop-color="rgb(100%, 65.982056%, 31.613159%)" offset="0.703125"/><stop stop-opacity="1" stop-color="rgb(100%, 65.74707%, 31.576538%)" offset="0.710938"/><stop stop-opacity="1" stop-color="rgb(100%, 65.510559%, 31.539917%)" offset="0.71875"/><stop stop-opacity="1" stop-color="rgb(100%, 65.274048%, 31.503296%)" offset="0.726562"/><stop stop-opacity="1" stop-color="rgb(100%, 65.039062%, 31.466675%)" offset="0.734375"/><stop stop-opacity="1" stop-color="rgb(100%, 64.802551%, 31.428528%)" offset="0.742188"/><stop stop-opacity="1" stop-color="rgb(100%, 64.56604%, 31.391907%)" offset="0.75"/><stop stop-opacity="1" stop-color="rgb(100%, 64.331055%, 31.355286%)" offset="0.757813"/><stop stop-opacity="1" stop-color="rgb(100%, 64.094543%, 31.318665%)" offset="0.765625"/><stop stop-opacity="1" stop-color="rgb(100%, 63.859558%, 31.282043%)" offset="0.773438"/><stop stop-opacity="1" stop-color="rgb(100%, 63.623047%, 31.245422%)" offset="0.78125"/><stop stop-opacity="1" stop-color="rgb(100%, 63.386536%, 31.208801%)" offset="0.789062"/><stop stop-opacity="1" stop-color="rgb(100%, 63.15155%, 31.17218%)" offset="0.796875"/><stop stop-opacity="1" stop-color="rgb(100%, 62.915039%, 31.135559%)" offset="0.804688"/><stop stop-opacity="1" stop-color="rgb(100%, 62.678528%, 31.098938%)" offset="0.8125"/><stop stop-opacity="1" stop-color="rgb(100%, 62.443542%, 31.062317%)" offset="0.820312"/><stop stop-opacity="1" stop-color="rgb(100%, 62.207031%, 31.025696%)" offset="0.828125"/><stop stop-opacity="1" stop-color="rgb(100%, 61.972046%, 30.989075%)" offset="0.835937"/><stop stop-opacity="1" stop-color="rgb(100%, 61.735535%, 30.952454%)" offset="0.84375"/><stop stop-opacity="1" stop-color="rgb(100%, 61.499023%, 30.915833%)" offset="0.851563"/><stop stop-opacity="1" stop-color="rgb(100%, 61.264038%, 30.879211%)" offset="0.859375"/><stop stop-opacity="1" stop-color="rgb(100%, 61.027527%, 30.841064%)" offset="0.867188"/><stop stop-opacity="1" stop-color="rgb(100%, 60.791016%, 30.804443%)" offset="0.875"/><stop stop-opacity="1" stop-color="rgb(100%, 60.55603%, 30.767822%)" offset="0.882812"/><stop stop-opacity="1" stop-color="rgb(100%, 60.319519%, 30.731201%)" offset="0.890625"/><stop stop-opacity="1" stop-color="rgb(100%, 60.084534%, 30.69458%)" offset="0.898438"/><stop stop-opacity="1" stop-color="rgb(100%, 59.848022%, 30.657959%)" offset="0.90625"/><stop stop-opacity="1" stop-color="rgb(100%, 59.611511%, 30.621338%)" offset="0.914062"/><stop stop-opacity="1" stop-color="rgb(100%, 59.376526%, 30.584717%)" offset="0.921875"/><stop stop-opacity="1" stop-color="rgb(100%, 59.140015%, 30.548096%)" offset="0.929687"/><stop stop-opacity="1" stop-color="rgb(100%, 58.903503%, 30.511475%)" offset="0.9375"/><stop stop-opacity="1" stop-color="rgb(100%, 58.668518%, 30.474854%)" offset="0.945312"/><stop stop-opacity="1" stop-color="rgb(100%, 58.432007%, 30.438232%)" offset="0.953125"/><stop stop-opacity="1" stop-color="rgb(100%, 58.197021%, 30.401611%)" offset="0.960938"/><stop stop-opacity="1" stop-color="rgb(100%, 57.96051%, 30.36499%)" offset="0.96875"/><stop stop-opacity="1" stop-color="rgb(100%, 57.723999%, 30.328369%)" offset="0.976562"/><stop stop-opacity="1" stop-color="rgb(100%, 57.489014%, 30.290222%)" offset="0.984375"/><stop stop-opacity="1" stop-color="rgb(100%, 57.252502%, 30.253601%)" offset="0.992188"/><stop stop-opacity="1" stop-color="rgb(100%, 57.015991%, 30.21698%)" offset="1"/></linearGradient></defs><rect x="-144" width="1728" fill="#ffffff" y="-22.5" height="270" fill-opacity="1"/><rect x="-144" width="1728" fill="#ffffff" y="-22.5" height="270" fill-opacity="1"/><g clip-path="url(#5b19a42790)"><g clip-path="url(#3bc39a4675)"><path fill="url(#2f4ce6f82d)" d="M 711.8125 48.035156 L 711.8125 199.347656 L 1269.078125 199.347656 L 1269.078125 48.035156 Z M 711.8125 48.035156 " fill-rule="nonzero"/></g></g><g fill="#f09852" fill-opacity="1"><g transform="translate(206.457882, 156.669073)"><g><path d="M 47.375 -103.625 L 8.875 -103.625 L 8.875 0 L 47.375 0 L 47.375 -35.53125 L 71.0625 -35.53125 L 71.0625 0 L 109.546875 0 L 109.546875 -103.625 L 71.0625 -103.625 L 71.0625 -68.09375 L 47.375 -68.09375 Z M 47.375 -103.625 "/></g></g></g><g fill="#f09852" fill-opacity="1"><g transform="translate(329.319006, 156.669073)"><g><path d="M 4.4375 -39.234375 C 4.4375 -16.28125 22.9375 2.21875 49.59375 2.21875 C 76.234375 2.21875 94.734375 -16.28125 94.734375 -39.234375 C 94.734375 -62.171875 76.234375 -80.671875 49.59375 -80.671875 C 22.9375 -80.671875 4.4375 -62.171875 4.4375 -39.234375 Z M 59.21875 -39.234375 C 59.21875 -32.5625 54.765625 -28.125 49.59375 -28.125 C 44.40625 -28.125 39.96875 -32.5625 39.96875 -39.234375 C 39.96875 -45.890625 44.40625 -50.328125 49.59375 -50.328125 C 54.765625 -50.328125 59.21875 -45.890625 59.21875 -39.234375 Z M 59.21875 -39.234375 "/></g></g></g><g fill="#f09852" fill-opacity="1"><g transform="translate(432.936922, 156.669073)"><g><path d="M 64.390625 0 L 87.34375 -78.453125 L 50.328125 -78.453125 L 43.671875 -37 L 37 -78.453125 L 0 -78.453125 L 22.9375 0 Z M 64.390625 0 "/></g></g></g><g fill="#f09852" fill-opacity="1"><g transform="translate(524.712873, 156.669073)"><g><path d="M 45.890625 -80.671875 C 22.9375 -80.671875 4.4375 -62.171875 4.4375 -39.234375 C 4.4375 -16.28125 22.9375 2.21875 48.109375 2.21875 C 68.09375 2.21875 79.203125 -9.625 79.203125 -9.625 L 66.609375 -29.609375 C 66.609375 -29.609375 60.6875 -23.6875 53.296875 -23.6875 C 41.453125 -23.6875 39.96875 -31.828125 39.96875 -31.828125 L 87.34375 -31.828125 C 87.34375 -32.421875 87.34375 -38.640625 87.34375 -39.234375 C 87.34375 -62.171875 68.828125 -80.671875 45.890625 -80.671875 Z M 39.234375 -45.890625 C 39.234375 -51.8125 42.1875 -54.765625 45.890625 -54.765625 C 49.59375 -54.765625 52.546875 -51.8125 52.546875 -45.890625 Z M 39.234375 -45.890625 "/></g></g></g><g fill="#f09852" fill-opacity="1"><g transform="translate(619.449293, 156.669073)"><g><path d="M 44.40625 -69.578125 L 41.453125 -78.453125 L 7.40625 -78.453125 L 7.40625 0 L 42.921875 0 L 42.921875 -32.5625 C 42.921875 -42.921875 48.84375 -48.84375 56.25 -48.84375 C 60.6875 -48.84375 66.609375 -45.890625 66.609375 -45.890625 L 72.53125 -78.453125 C 72.53125 -78.453125 68.09375 -80.671875 62.171875 -80.671875 C 50.328125 -80.671875 44.40625 -69.578125 44.40625 -69.578125 Z M 44.40625 -69.578125 "/></g></g></g><g fill="#ffffff" fill-opacity="1"><g transform="translate(752.420129, 156.669073)"><g><path d="M 94.734375 -39.234375 C 94.734375 -65.875 79.9375 -80.671875 63.65625 -80.671875 C 48.84375 -80.671875 42.921875 -69.578125 42.921875 -69.578125 L 42.921875 -109.546875 L 7.40625 -109.546875 L 7.40625 0 L 39.96875 0 C 42.921875 -8.875 42.921875 -8.875 42.921875 -8.875 C 42.921875 -8.875 48.84375 2.21875 63.65625 2.21875 C 79.9375 2.21875 94.734375 -12.578125 94.734375 -39.234375 Z M 57.734375 -39.234375 C 57.734375 -31.828125 54.03125 -28.125 49.59375 -28.125 C 45.15625 -28.125 41.453125 -31.828125 41.453125 -39.234375 C 41.453125 -46.625 45.15625 -50.328125 49.59375 -50.328125 C 54.03125 -50.328125 57.734375 -46.625 57.734375 -39.234375 Z M 57.734375 -39.234375 "/></g></g></g><g fill="#ffffff" fill-opacity="1"><g transform="translate(856.038045, 156.669073)"><g><path d="M 4.4375 -39.234375 C 4.4375 -16.28125 22.9375 2.21875 49.59375 2.21875 C 76.234375 2.21875 94.734375 -16.28125 94.734375 -39.234375 C 94.734375 -62.171875 76.234375 -80.671875 49.59375 -80.671875 C 22.9375 -80.671875 4.4375 -62.171875 4.4375 -39.234375 Z M 59.21875 -39.234375 C 59.21875 -32.5625 54.765625 -28.125 49.59375 -28.125 C 44.40625 -28.125 39.96875 -32.5625 39.96875 -39.234375 C 39.96875 -45.890625 44.40625 -50.328125 49.59375 -50.328125 C 54.765625 -50.328125 59.21875 -45.890625 59.21875 -39.234375 Z M 59.21875 -39.234375 "/></g></g></g><g fill="#ffffff" fill-opacity="1"><g transform="translate(959.655962, 156.669073)"><g><path d="M 42.1875 -80.671875 C 22.203125 -80.671875 11.109375 -68.828125 11.109375 -68.828125 L 23.6875 -48.84375 C 23.6875 -48.84375 29.609375 -54.765625 37 -54.765625 C 48.84375 -54.765625 50.328125 -46.625 50.328125 -46.625 L 38.484375 -46.625 C 13.328125 -46.625 2.953125 -36.265625 2.953125 -22.203125 C 2.953125 -8.140625 13.328125 2.21875 29.609375 2.21875 C 42.921875 2.21875 48.84375 -8.875 48.84375 -8.875 L 51.8125 0 L 85.859375 0 C 85.859375 -11.546875 85.859375 -26.5 85.859375 -39.234375 C 85.859375 -62.171875 67.359375 -80.671875 42.1875 -80.671875 Z M 42.921875 -21.46875 C 40.703125 -21.46875 38.484375 -23.6875 38.484375 -25.90625 C 38.484375 -30.34375 42.1875 -34.046875 50.328125 -34.046875 C 50.328125 -25.171875 46.625 -21.46875 42.921875 -21.46875 Z M 42.921875 -21.46875 "/></g></g></g><g fill="#ffffff" fill-opacity="1"><g transform="translate(1055.872655, 156.669073)"><g><path d="M 44.40625 -69.578125 L 41.453125 -78.453125 L 7.40625 -78.453125 L 7.40625 0 L 42.921875 0 L 42.921875 -32.5625 C 42.921875 -42.921875 48.84375 -48.84375 56.25 -48.84375 C 60.6875 -48.84375 66.609375 -45.890625 66.609375 -45.890625 L 72.53125 -78.453125 C 72.53125 -78.453125 68.09375 -80.671875 62.171875 -80.671875 C 50.328125 -80.671875 44.40625 -69.578125 44.40625 -69.578125 Z M 44.40625 -69.578125 "/></g></g></g><g fill="#ffffff" fill-opacity="1"><g transform="translate(1131.365885, 156.669073)"><g><path d="M 4.4375 -39.234375 C 4.4375 -12.578125 19.25 2.21875 35.53125 2.21875 C 50.328125 2.21875 56.25 -8.875 56.25 -8.875 C 56.25 -8.875 56.25 -8.875 59.21875 0 L 91.78125 0 L 91.78125 -109.546875 L 56.25 -109.546875 L 56.25 -69.578125 C 56.25 -69.578125 50.328125 -80.671875 35.53125 -80.671875 C 19.25 -80.671875 4.4375 -65.875 4.4375 -39.234375 Z M 41.453125 -39.234375 C 41.453125 -46.625 45.15625 -50.328125 49.59375 -50.328125 C 54.03125 -50.328125 57.734375 -46.625 57.734375 -39.234375 C 57.734375 -31.828125 54.03125 -28.125 49.59375 -28.125 C 45.15625 -28.125 41.453125 -31.828125 41.453125 -39.234375 Z M 41.453125 -39.234375 "/></g></g></g></svg>