<svg xmlns="http://www.w3.org/2000/svg" xmlns:xlink="http://www.w3.org/1999/xlink" width="1920" zoomAndPan="magnify" viewBox="0 0 1440 225" height="300" preserveAspectRatio="xMidYMid meet" version="1.0"><defs><g/><clipPath id="e2d12bce91"><path d="M 1241 15.042969 L 1417 15.042969 L 1417 185.527344 L 1241 185.527344 Z M 1241 15.042969 " clip-rule="nonzero"/></clipPath><clipPath id="9c805d6a0f"><path d="M 1250.109375 15.707031 L 1408.210938 15.707031 C 1410.597656 15.707031 1412.886719 16.65625 1414.574219 18.34375 C 1416.261719 20.03125 1417.210938 22.320312 1417.210938 24.707031 L 1417.210938 176.527344 C 1417.210938 178.914062 1416.261719 181.203125 1414.574219 182.894531 C 1412.886719 184.582031 1410.597656 185.527344 1408.210938 185.527344 L 1250.109375 185.527344 C 1247.722656 185.527344 1245.433594 184.582031 1243.746094 182.894531 C 1242.058594 181.203125 1241.109375 178.914062 1241.109375 176.527344 L 1241.109375 24.707031 C 1241.109375 22.320312 1242.058594 20.03125 1243.746094 18.34375 C 1245.433594 16.65625 1247.722656 15.707031 1250.109375 15.707031 Z M 1250.109375 15.707031 " clip-rule="nonzero"/></clipPath></defs><rect x="-144" width="1728" fill="#ffffff" y="-22.5" height="270" fill-opacity="1"/><rect x="-144" width="1728" fill="#ffffff" y="-22.5" height="270" fill-opacity="1"/><g fill="#38b6ff" fill-opacity="1"><g transform="translate(22.499999, 171.185212)"><g><path d="M 41.40625 -134.515625 L 10.765625 -134.515625 L 10.765625 0 L 87.71875 0 L 87.71875 -26.90625 L 41.40625 -26.90625 Z M 41.40625 -134.515625 "/></g></g></g><g fill="#38b6ff" fill-opacity="1"><g transform="translate(120.975144, 171.185212)"><g><path d="M 41.578125 -41.734375 C 41.578125 -53.3125 50.21875 -61.46875 61.140625 -61.46875 C 71.90625 -61.46875 80.546875 -53.3125 80.546875 -41.734375 C 80.546875 -30.328125 72.390625 -22.171875 61.140625 -22.171875 C 49.40625 -22.171875 41.578125 -30.328125 41.578125 -41.734375 Z M 108.75 -74.015625 C 108.75 -88.203125 63.75 -86.09375 52.5 -86.09375 C 28.046875 -86.09375 10.921875 -66.203125 10.921875 -41.734375 C 10.921875 -17.28125 28.046875 2.453125 52.5 2.453125 C 63.921875 2.453125 74.015625 -2.609375 80.21875 -9.453125 L 80.21875 0 L 108.75 0 Z M 108.75 -74.015625 "/></g></g></g><g fill="#38b6ff" fill-opacity="1"><g transform="translate(240.808303, 171.185212)"><g><path d="M 40.109375 -83.640625 L 11.25 -83.640625 L 11.25 -36.84375 C 11.25 -8.796875 25.265625 2.453125 56.578125 2.453125 C 87.875 2.453125 101.90625 -8.796875 101.90625 -36.84375 L 101.90625 -83.640625 L 73.046875 -83.640625 L 73.046875 -43.859375 C 73.046875 -27.390625 68.640625 -21.03125 56.578125 -21.03125 C 44.515625 -21.03125 40.109375 -27.390625 40.109375 -43.859375 Z M 40.109375 -83.640625 "/></g></g></g><g fill="#38b6ff" fill-opacity="1"><g transform="translate(353.956908, 171.185212)"><g><path d="M 38.96875 -83.640625 L 10.109375 -83.640625 L 10.109375 0 L 38.96875 0 L 38.96875 -44.015625 C 38.96875 -46.140625 41.09375 -60.984375 56.09375 -60.984375 C 65.703125 -60.984375 71.09375 -56.421875 71.09375 -56.421875 L 83.15625 -80.875 C 83.15625 -80.875 75.65625 -86.09375 64.890625 -86.09375 C 48.421875 -86.09375 38.96875 -71.578125 38.96875 -71.578125 Z M 38.96875 -83.640625 "/></g></g></g><g fill="#38b6ff" fill-opacity="1"><g transform="translate(447.377874, 171.185212)"><g><path d="M 12.390625 -112.671875 C 12.390625 -104.84375 18.75 -98.3125 26.25 -98.3125 C 33.75 -98.3125 40.109375 -104.84375 40.109375 -112.671875 C 40.109375 -120.484375 33.75 -127.015625 26.25 -127.015625 C 18.75 -127.015625 12.390625 -120.484375 12.390625 -112.671875 Z M 11.40625 0 L 40.765625 0 L 40.765625 -85.765625 L 11.40625 -85.765625 Z M 11.40625 0 "/></g></g></g><g fill="#38b6ff" fill-opacity="1"><g transform="translate(499.713185, 171.185212)"><g><path d="M 40.765625 -51.6875 C 41.25 -59.34375 46.796875 -67.34375 56.734375 -67.34375 C 65.21875 -67.34375 71.25 -60.484375 72.5625 -51.6875 Z M 78.421875 -28.203125 C 60 -9.78125 39.953125 -22.984375 39.953125 -37.015625 L 100.765625 -37.015625 C 100.765625 -68.15625 81.359375 -86.09375 55.921875 -86.09375 C 30.65625 -86.09375 9.953125 -66.203125 9.953125 -41.734375 C 9.953125 -17.453125 30.65625 2.453125 55.921875 2.453125 C 74.515625 2.453125 89.84375 -3.59375 99.296875 -19.40625 Z M 78.421875 -28.203125 "/></g></g></g><g fill="#38b6ff" fill-opacity="1"><g transform="translate(635.11076, 180.83446)"><g><path d="M 120.8125 -4.078125 L 114.296875 -34.234375 C 114.296875 -34.234375 102.390625 -27.71875 86.734375 -27.71875 C 55.921875 -27.71875 42.390625 -49.234375 42.390625 -67.34375 C 42.390625 -85.28125 55.921875 -106.796875 86.734375 -106.796875 C 102.390625 -106.796875 114.296875 -100.28125 114.296875 -100.28125 L 120.8125 -130.4375 C 120.8125 -130.4375 111.203125 -136.953125 82.015625 -136.953125 C 43.859375 -136.953125 9.125 -105.65625 9.125 -67.015625 C 9.125 -28.53125 44.015625 2.453125 82.015625 2.453125 C 111.203125 2.453125 120.8125 -4.078125 120.8125 -4.078125 Z M 120.8125 -4.078125 "/></g></g></g><g fill="#38b6ff" fill-opacity="1"><g transform="translate(765.21536, 180.83446)"><g><path d="M 38.96875 -83.640625 L 10.109375 -83.640625 L 10.109375 0 L 38.96875 0 L 38.96875 -44.015625 C 38.96875 -46.140625 41.09375 -60.984375 56.09375 -60.984375 C 65.703125 -60.984375 71.09375 -56.421875 71.09375 -56.421875 L 83.15625 -80.875 C 83.15625 -80.875 75.65625 -86.09375 64.890625 -86.09375 C 48.421875 -86.09375 38.96875 -71.578125 38.96875 -71.578125 Z M 38.96875 -83.640625 "/></g></g></g><g fill="#38b6ff" fill-opacity="1"><g transform="translate(858.636326, 180.83446)"><g><path d="M 40.765625 -51.6875 C 41.25 -59.34375 46.796875 -67.34375 56.734375 -67.34375 C 65.21875 -67.34375 71.25 -60.484375 72.5625 -51.6875 Z M 78.421875 -28.203125 C 60 -9.78125 39.953125 -22.984375 39.953125 -37.015625 L 100.765625 -37.015625 C 100.765625 -68.15625 81.359375 -86.09375 55.921875 -86.09375 C 30.65625 -86.09375 9.953125 -66.203125 9.953125 -41.734375 C 9.953125 -17.453125 30.65625 2.453125 55.921875 2.453125 C 74.515625 2.453125 89.84375 -3.59375 99.296875 -19.40625 Z M 78.421875 -28.203125 "/></g></g></g><g fill="#38b6ff" fill-opacity="1"><g transform="translate(969.339348, 180.83446)"><g><path d="M 41.578125 -41.734375 C 41.578125 -53.3125 50.21875 -61.46875 61.140625 -61.46875 C 71.90625 -61.46875 80.546875 -53.3125 80.546875 -41.734375 C 80.546875 -30.328125 72.390625 -22.171875 61.140625 -22.171875 C 49.40625 -22.171875 41.578125 -30.328125 41.578125 -41.734375 Z M 108.75 -74.015625 C 108.75 -88.203125 63.75 -86.09375 52.5 -86.09375 C 28.046875 -86.09375 10.921875 -66.203125 10.921875 -41.734375 C 10.921875 -17.28125 28.046875 2.453125 52.5 2.453125 C 63.921875 2.453125 74.015625 -2.609375 80.21875 -9.453125 L 80.21875 0 L 108.75 0 Z M 108.75 -74.015625 "/></g></g></g><g fill="#38b6ff" fill-opacity="1"><g transform="translate(1089.172507, 180.83446)"><g><path d="M 41.578125 0 L 41.578125 -39.78125 C 41.578125 -56.25 46.140625 -62.609375 58.203125 -62.609375 C 70.265625 -62.609375 74.515625 -56.25 74.515625 -39.78125 L 74.515625 0 L 103.375 0 L 103.375 -46.796875 C 103.375 -74.84375 89.515625 -86.09375 58.203125 -86.09375 C 47.609375 -86.09375 39.953125 -83.8125 34.40625 -80.0625 L 34.40625 -84.78125 L 11.578125 -84.78125 L 11.578125 0 Z M 41.578125 0 "/></g></g></g><g clip-path="url(#e2d12bce91)"><g clip-path="url(#9c805d6a0f)"><path fill="#3b72ff" d="M 1241.109375 15.707031 L 1416.902344 15.707031 L 1416.902344 185.527344 L 1241.109375 185.527344 Z M 1241.109375 15.707031 " fill-opacity="1" fill-rule="nonzero"/></g></g><g fill="#ffffff" fill-opacity="1"><g transform="translate(1229.177301, 165.869949)"><g><path d="M 43.203125 -140.34375 L 11.234375 -140.34375 L 11.234375 0 L 91.515625 0 L 91.515625 -28.0625 L 43.203125 -28.0625 Z M 43.203125 -140.34375 "/></g></g></g><g fill="#ffffff" fill-opacity="1"><g transform="translate(1292.044866, 188.550568)"><g><path d="M 113.65625 -3.828125 L 107.53125 -32.21875 C 107.53125 -32.21875 96.328125 -26.078125 81.609375 -26.078125 C 52.609375 -26.078125 39.875 -46.328125 39.875 -63.34375 C 39.875 -80.21875 52.609375 -100.46875 81.609375 -100.46875 C 96.328125 -100.46875 107.53125 -94.328125 107.53125 -94.328125 L 113.65625 -122.71875 C 113.65625 -122.71875 104.609375 -128.84375 77.15625 -128.84375 C 41.265625 -128.84375 8.59375 -99.390625 8.59375 -63.046875 C 8.59375 -26.84375 41.421875 2.296875 77.15625 2.296875 C 104.609375 2.296875 113.65625 -3.828125 113.65625 -3.828125 Z M 113.65625 -3.828125 "/></g></g></g></svg>