<svg xmlns="http://www.w3.org/2000/svg" xmlns:xlink="http://www.w3.org/1999/xlink" width="1920" zoomAndPan="magnify" viewBox="0 0 1440 225" height="300" preserveAspectRatio="xMidYMid meet" version="1.0"><defs><g/><clipPath id="3fdb9ae38d"><path d="M 654.789062 112.667969 L 669.40625 112.667969 L 669.40625 138.773438 L 654.789062 138.773438 Z M 654.789062 112.667969 " clip-rule="nonzero"/></clipPath><clipPath id="0f035b4105"><path d="M 654.824219 137.71875 C 655.496094 133.945312 657.203125 132.1875 658.234375 130.222656 C 659.476562 127.84375 660.253906 124.636719 661.75 122.101562 C 663.199219 119.570312 665.628906 116 667.078125 115.070312 C 667.75 114.65625 668.472656 114.5 668.835938 114.707031 C 669.148438 114.863281 669.40625 115.585938 669.300781 116 C 669.199219 116.519531 668.371094 116.777344 667.75 117.605469 C 666.355469 119.464844 663.40625 124.84375 661.90625 127.6875 C 660.820312 129.703125 659.890625 131.359375 659.375 132.960938 C 659.011719 134.152344 659.375 135.703125 658.855469 136.21875 C 658.492188 136.582031 657.667969 136.683594 657.355469 136.53125 C 657.148438 136.425781 656.996094 136.167969 656.941406 135.859375 C 656.890625 135.445312 657.097656 135.03125 657.355469 134.152344 C 658.234375 131.152344 662.578125 117.242188 663.925781 114.449219 C 664.335938 113.621094 664.492188 113.207031 664.90625 112.949219 C 665.269531 112.742188 665.785156 112.691406 666.097656 112.847656 C 666.355469 112.949219 666.507812 113.3125 666.613281 113.621094 C 666.714844 114.085938 666.613281 114.5 666.457031 115.378906 C 665.941406 118.222656 663.25 131.203125 661.75 133.117188 C 661.339844 133.632812 660.871094 133.839844 660.5625 133.789062 C 660.199219 133.738281 659.839844 133.21875 659.734375 132.652344 C 659.578125 131.460938 661.285156 127.53125 661.90625 126.5 C 662.164062 126.085938 662.320312 125.878906 662.632812 125.773438 C 662.890625 125.671875 663.355469 125.671875 663.613281 125.824219 C 663.871094 126.03125 664.027344 126.394531 664.078125 126.910156 C 664.128906 128.203125 662.992188 132.808594 662.0625 133.738281 C 661.648438 134.152344 660.925781 134.304688 660.613281 134.152344 C 660.304688 133.996094 660.046875 133.273438 660.148438 132.960938 C 660.253906 132.652344 661.183594 132.1875 661.492188 132.289062 C 661.804688 132.394531 662.21875 133.273438 662.113281 133.632812 C 662.011719 133.945312 661.339844 134.359375 661.027344 134.304688 C 660.664062 134.253906 660.253906 133.6875 660.148438 133.066406 C 659.941406 131.722656 661.183594 127.222656 662.113281 126.292969 C 662.527344 125.824219 663.304688 125.671875 663.613281 125.824219 C 663.925781 125.980469 664.078125 126.394531 664.078125 126.910156 C 664.128906 128.152344 662.632812 132.546875 661.648438 133.324219 C 661.183594 133.6875 660.40625 133.738281 660.097656 133.53125 C 659.785156 133.273438 659.785156 132.703125 659.839844 131.824219 C 659.992188 128.929688 663.304688 114.292969 664.90625 112.949219 C 665.320312 112.640625 665.835938 112.691406 666.097656 112.847656 C 666.40625 113.054688 666.5625 113.464844 666.5625 114.140625 C 666.5625 116.984375 660.925781 134.410156 658.855469 136.21875 C 658.339844 136.683594 657.667969 136.738281 657.355469 136.53125 C 656.996094 136.324219 656.941406 135.445312 656.941406 134.773438 C 656.941406 133.945312 657.097656 133.21875 657.511719 132.03125 C 658.441406 129.496094 661.90625 123.445312 663.511719 120.601562 C 664.492188 118.84375 665.214844 117.449219 666.042969 116.414062 C 666.664062 115.691406 667.285156 114.914062 667.855469 114.707031 C 668.269531 114.550781 668.785156 114.65625 669.042969 114.863281 C 669.300781 115.070312 669.40625 115.484375 669.300781 116 C 668.992188 117.398438 664.855469 120.601562 663.511719 122.878906 C 662.425781 124.6875 662.269531 126.445312 661.390625 128.308594 C 660.355469 130.480469 658.183594 133.21875 657.460938 135.082031 C 656.996094 136.273438 657.253906 137.617188 656.789062 138.183594 C 656.476562 138.546875 655.804688 138.804688 655.496094 138.703125 C 655.183594 138.597656 654.824219 137.71875 654.824219 137.71875 " clip-rule="nonzero"/></clipPath><clipPath id="bc9e8f52b4"><path d="M 654.289062 95.765625 L 679.875 95.765625 L 679.875 138.105469 L 654.289062 138.105469 Z M 654.289062 95.765625 " clip-rule="nonzero"/></clipPath><clipPath id="6746a67d83"><path d="M 656.375 132.289062 C 660.460938 123.085938 662.425781 120.035156 663.871094 118.222656 C 664.855469 116.984375 665.683594 116.671875 666.714844 115.378906 C 668.320312 113.363281 671.320312 109.226562 671.992188 106.847656 C 672.40625 105.347656 671.679688 102.867188 671.886719 102.8125 C 672.09375 102.761719 673.699219 105.761719 673.4375 107.363281 C 673.078125 109.589844 669.457031 111.96875 667.800781 114.5 C 666.148438 117.035156 664.597656 120.449219 663.613281 122.671875 C 662.941406 124.121094 662.425781 125.050781 662.164062 126.34375 C 661.90625 127.636719 661.597656 130.117188 662.164062 130.429688 C 662.839844 130.738281 664.957031 128.875 666.300781 127.480469 C 668.164062 125.515625 670.234375 120.808594 671.628906 119.257812 C 672.300781 118.484375 672.714844 118.070312 673.4375 117.8125 C 674.214844 117.550781 675.402344 117.550781 676.179688 117.757812 C 676.800781 117.964844 677.316406 118.328125 677.730469 118.792969 C 678.144531 119.257812 678.507812 119.828125 678.609375 120.449219 C 678.765625 121.222656 678.765625 122.257812 678.300781 123.1875 C 677.628906 124.53125 675.195312 126.652344 673.851562 127.324219 C 672.972656 127.738281 672.09375 127.789062 671.421875 127.738281 C 670.957031 127.6875 670.644531 127.636719 670.234375 127.378906 C 669.664062 127.015625 668.835938 126.292969 668.527344 125.566406 C 668.214844 124.84375 668.113281 123.808594 668.214844 123.136719 C 668.269531 122.671875 668.472656 122.308594 668.679688 121.949219 C 668.886719 121.585938 669.09375 121.222656 669.457031 120.964844 C 669.972656 120.550781 671.058594 120.136719 671.730469 120.035156 C 672.199219 119.984375 672.558594 119.984375 673.023438 120.136719 C 673.644531 120.34375 674.628906 120.914062 675.09375 121.535156 C 675.558594 122.15625 675.871094 123.085938 675.871094 123.859375 C 675.871094 124.636719 675.507812 125.671875 675.144531 126.238281 C 674.886719 126.652344 674.628906 126.859375 674.214844 127.117188 C 673.644531 127.429688 672.613281 127.84375 671.835938 127.789062 C 671.058594 127.738281 670.128906 127.429688 669.507812 126.910156 C 668.886719 126.394531 668.421875 125.414062 668.214844 124.792969 C 668.0625 124.328125 668.113281 123.964844 668.164062 123.550781 C 668.214844 123.136719 668.214844 122.773438 668.472656 122.308594 C 668.992188 121.378906 671.007812 119.671875 671.9375 118.898438 C 672.507812 118.378906 672.816406 118.015625 673.4375 117.8125 C 674.164062 117.550781 675.402344 117.550781 676.179688 117.757812 C 676.800781 117.964844 677.316406 118.277344 677.730469 118.792969 C 678.246094 119.414062 678.660156 120.601562 678.714844 121.378906 C 678.765625 122.050781 678.558594 122.773438 678.300781 123.1875 C 678.09375 123.445312 677.78125 123.394531 677.472656 123.707031 C 676.488281 124.6875 674.523438 128.773438 673.230469 130.789062 C 672.25 132.289062 671.472656 133.582031 670.492188 134.71875 C 669.613281 135.753906 668.785156 136.789062 667.59375 137.359375 C 666.25 137.976562 664.078125 138.238281 662.632812 137.925781 C 661.339844 137.667969 660.199219 136.789062 659.113281 136.011719 C 657.976562 135.1875 656.683594 134.304688 655.910156 133.015625 C 655.03125 131.566406 654.5625 129.34375 654.410156 127.636719 C 654.253906 126.1875 654.304688 124.84375 654.667969 123.445312 C 655.082031 121.949219 656.011719 120.292969 656.890625 119.050781 C 657.667969 117.914062 658.804688 117.5 659.632812 116.207031 C 660.820312 114.398438 661.441406 110.675781 662.578125 108.65625 C 663.457031 107.15625 664.648438 106.382812 665.476562 105.039062 C 666.300781 103.589844 666.714844 101.726562 667.492188 100.28125 C 668.164062 98.988281 668.679688 97.539062 669.714844 96.816406 C 670.800781 96.089844 672.558594 95.78125 673.902344 95.886719 C 675.25 95.988281 676.800781 96.503906 677.730469 97.332031 C 678.714844 98.210938 679.332031 99.710938 679.644531 101.003906 C 679.953125 102.347656 679.746094 103.898438 679.644531 105.347656 C 679.539062 106.796875 679.59375 108.191406 679.074219 109.742188 C 678.402344 111.863281 676.902344 114.140625 675.25 116.621094 C 673.023438 119.878906 668.628906 123.652344 666.507812 127.222656 C 664.699219 130.222656 664.234375 134.824219 662.734375 136.324219 C 661.957031 137.097656 660.976562 137.304688 660.199219 137.410156 C 659.582031 137.460938 658.960938 137.359375 658.390625 137.046875 C 657.71875 136.683594 656.789062 135.804688 656.476562 135.03125 C 656.167969 134.253906 656.375 132.289062 656.375 132.289062 " clip-rule="nonzero"/></clipPath><clipPath id="7dee979c1b"><path d="M 713.445312 118.765625 L 738.625 118.765625 L 738.625 162 L 713.445312 162 Z M 713.445312 118.765625 " clip-rule="nonzero"/></clipPath><clipPath id="c10fadc075"><path d="M 714.1875 146.976562 C 716.980469 142.320312 717.910156 135.597656 719.359375 132.03125 C 720.496094 129.289062 721.789062 127.066406 723.132812 125 C 724.269531 123.242188 725.304688 121.429688 726.648438 120.394531 C 727.789062 119.570312 729.082031 119.050781 730.375 118.898438 C 731.667969 118.742188 733.320312 118.792969 734.457031 119.515625 C 735.804688 120.394531 736.941406 122.414062 737.457031 124.378906 C 738.128906 126.964844 737.921875 130.945312 736.992188 133.945312 C 736.0625 136.996094 732.699219 140.097656 731.71875 142.527344 C 731.097656 144.082031 731.40625 145.425781 730.839844 146.664062 C 730.320312 147.855469 729.132812 148.628906 728.460938 149.820312 C 727.789062 151.0625 727.476562 152.714844 726.855469 154.058594 C 726.289062 155.300781 725.824219 156.386719 724.890625 157.523438 C 723.703125 158.921875 721.21875 160.9375 719.925781 161.558594 C 719.203125 161.921875 718.789062 162.023438 718.117188 161.972656 C 717.34375 161.921875 716.152344 161.457031 715.53125 160.9375 C 715.015625 160.523438 714.703125 160.007812 714.550781 159.386719 C 714.34375 158.609375 714.292969 157.421875 714.601562 156.644531 C 714.910156 155.871094 716.308594 154.527344 716.464844 154.628906 C 716.667969 154.734375 714.757812 159.179688 714.445312 159.128906 C 714.136719 159.078125 714.238281 156.542969 714.394531 155.199219 C 714.601562 153.648438 715.066406 152.25 715.738281 150.285156 C 716.824219 147.234375 718.996094 142.375 720.703125 138.855469 C 722.203125 135.753906 723.183594 131.824219 725.253906 130.273438 C 726.855469 129.082031 729.699219 128.515625 731.097656 129.082031 C 732.234375 129.550781 732.90625 130.996094 733.425781 132.496094 C 734.148438 134.617188 733.941406 138.390625 733.785156 140.976562 C 733.632812 143.199219 733.527344 145.890625 732.699219 147.132812 C 732.132812 147.957031 731.148438 148.371094 730.375 148.578125 C 729.753906 148.734375 729.082031 148.628906 728.511719 148.476562 C 727.941406 148.320312 727.324219 148.011719 726.910156 147.542969 C 726.390625 146.976562 725.976562 146.046875 725.71875 145.011719 C 725.355469 143.460938 725.253906 141.082031 725.71875 139.011719 C 726.289062 136.53125 728.410156 133.738281 729.390625 131.308594 C 730.21875 129.1875 730.582031 126.5 731.355469 125.257812 C 731.769531 124.585938 732.234375 124.273438 732.753906 123.964844 C 733.269531 123.652344 733.890625 123.5 734.511719 123.5 C 735.285156 123.5 736.476562 123.808594 737.148438 124.378906 C 737.820312 124.945312 738.234375 125.773438 738.441406 126.808594 C 738.800781 128.464844 738.542969 131.566406 738.078125 133.480469 C 737.714844 135.082031 737.042969 136.011719 736.320312 137.617188 C 735.335938 139.941406 733.785156 144.339844 732.597656 146.046875 C 731.976562 146.925781 731.511719 147.441406 730.785156 147.75 C 730.0625 148.0625 728.976562 148.0625 728.304688 147.957031 C 727.839844 147.855469 727.527344 147.648438 727.167969 147.441406 C 726.804688 147.234375 726.496094 147.027344 726.238281 146.613281 C 725.875 146.046875 725.460938 144.960938 725.355469 144.285156 C 725.304688 143.820312 725.355469 143.511719 725.511719 143.046875 C 725.769531 142.425781 726.441406 141.441406 726.960938 141.027344 C 727.324219 140.71875 727.582031 140.5625 728.046875 140.460938 C 728.667969 140.304688 729.804688 140.253906 730.527344 140.511719 C 731.253906 140.769531 732.078125 141.390625 732.492188 142.0625 C 732.90625 142.734375 733.113281 143.820312 733.113281 144.492188 C 733.113281 144.960938 733.011719 145.269531 732.804688 145.683594 C 732.492188 146.253906 731.820312 147.183594 731.148438 147.542969 C 730.476562 147.90625 729.496094 148.113281 728.71875 148.011719 C 727.941406 147.90625 727.011719 147.339844 726.496094 146.925781 C 726.132812 146.613281 725.925781 146.355469 725.769531 145.941406 C 725.511719 145.320312 725.304688 144.441406 725.410156 143.460938 C 725.511719 142.0625 726.238281 140.203125 727.011719 138.390625 C 727.941406 136.117188 730.425781 133.066406 730.890625 130.894531 C 731.199219 129.445312 730.582031 127.996094 730.734375 126.964844 C 730.839844 126.238281 730.992188 125.773438 731.355469 125.257812 C 731.820312 124.636719 732.753906 123.808594 733.578125 123.601562 C 734.40625 123.394531 735.542969 123.550781 736.320312 123.914062 C 737.097656 124.273438 737.871094 125.152344 738.234375 125.878906 C 738.542969 126.445312 738.59375 126.910156 738.492188 127.738281 C 738.234375 129.703125 735.597656 133.945312 734.613281 137.203125 C 733.632812 140.410156 733.683594 145.527344 732.699219 147.132812 C 732.285156 147.804688 731.820312 148.011719 731.253906 148.269531 C 730.683594 148.527344 730.011719 148.683594 729.390625 148.628906 C 728.769531 148.578125 728.148438 148.425781 727.632812 148.113281 C 727.117188 147.804688 726.597656 147.339844 726.289062 146.820312 C 725.976562 146.304688 725.824219 145.890625 725.71875 145.011719 C 725.460938 142.996094 724.632812 135.753906 726.082031 134.617188 C 727.0625 133.839844 730.425781 134.511719 730.941406 135.546875 C 731.667969 136.996094 728.097656 140.667969 726.597656 144.082031 C 724.476562 148.835938 721.894531 159.851562 719.925781 161.558594 C 719.308594 162.128906 718.738281 161.972656 718.117188 161.972656 C 717.496094 161.972656 716.824219 161.765625 716.308594 161.457031 C 715.789062 161.144531 715.273438 160.730469 714.964844 160.214844 C 714.652344 159.695312 714.34375 159.128906 714.34375 158.457031 C 714.292969 157.679688 714.550781 156.644531 715.066406 155.820312 C 715.6875 154.785156 717.03125 154.265625 718.117188 153.027344 C 719.773438 151.113281 721.894531 147.699219 723.390625 144.90625 C 724.789062 142.269531 725.667969 138.855469 726.855469 136.789062 C 727.632812 135.390625 728.769531 134.773438 729.234375 133.53125 C 729.753906 132.238281 730.011719 129.1875 729.699219 129.082031 C 729.234375 128.929688 726.546875 133.996094 725.617188 136.683594 C 724.683594 139.425781 724.945312 142.734375 724.011719 145.320312 C 723.132812 147.648438 721.480469 150.335938 720.445312 151.527344 C 719.925781 152.148438 719.566406 152.457031 719.046875 152.714844 C 718.53125 152.972656 717.910156 153.179688 717.238281 153.128906 C 716.464844 153.078125 715.273438 152.664062 714.652344 152.09375 C 714.03125 151.527344 713.515625 150.492188 713.464844 149.613281 C 713.410156 148.785156 714.1875 146.976562 714.1875 146.976562 " clip-rule="nonzero"/></clipPath><clipPath id="15e6ba60f0"><path d="M 721 114 L 732 114 L 732 136 L 721 136 Z M 721 114 " clip-rule="nonzero"/></clipPath><clipPath id="ba30e3d1e8"><path d="M 565.75 82.8125 L 725.773438 -18.246094 L 826.832031 141.78125 L 666.804688 242.839844 Z M 565.75 82.8125 " clip-rule="nonzero"/></clipPath><clipPath id="09b93869cc"><path d="M 565.75 82.8125 L 725.773438 -18.246094 L 826.832031 141.78125 L 666.804688 242.839844 Z M 565.75 82.8125 " clip-rule="nonzero"/></clipPath><clipPath id="cce9c4971f"><path d="M 565.75 82.8125 L 725.773438 -18.246094 L 826.832031 141.78125 L 666.804688 242.839844 Z M 565.75 82.8125 " clip-rule="nonzero"/></clipPath><clipPath id="44594410af"><path d="M 728 104 L 737 104 L 737 126 L 728 126 Z M 728 104 " clip-rule="nonzero"/></clipPath><clipPath id="fd5399fcfe"><path d="M 565.75 82.8125 L 725.773438 -18.246094 L 826.832031 141.78125 L 666.804688 242.839844 Z M 565.75 82.8125 " clip-rule="nonzero"/></clipPath><clipPath id="c8851d1644"><path d="M 565.75 82.8125 L 725.773438 -18.246094 L 826.832031 141.78125 L 666.804688 242.839844 Z M 565.75 82.8125 " clip-rule="nonzero"/></clipPath><clipPath id="90cb1cbaa6"><path d="M 565.75 82.8125 L 725.773438 -18.246094 L 826.832031 141.78125 L 666.804688 242.839844 Z M 565.75 82.8125 " clip-rule="nonzero"/></clipPath><clipPath id="c4f31d6e0b"><path d="M 715 124 L 726 124 L 726 144 L 715 144 Z M 715 124 " clip-rule="nonzero"/></clipPath><clipPath id="b341608e77"><path d="M 565.75 82.8125 L 725.773438 -18.246094 L 826.832031 141.78125 L 666.804688 242.839844 Z M 565.75 82.8125 " clip-rule="nonzero"/></clipPath><clipPath id="6afb8b69ee"><path d="M 565.75 82.8125 L 725.773438 -18.246094 L 826.832031 141.78125 L 666.804688 242.839844 Z M 565.75 82.8125 " clip-rule="nonzero"/></clipPath><clipPath id="5ae403dd61"><path d="M 565.75 82.8125 L 725.773438 -18.246094 L 826.832031 141.78125 L 666.804688 242.839844 Z M 565.75 82.8125 " clip-rule="nonzero"/></clipPath><clipPath id="edb4b15f86"><path d="M 601 17 L 748 17 L 748 206 L 601 206 Z M 601 17 " clip-rule="nonzero"/></clipPath><clipPath id="af337e3e7d"><path d="M 565.75 82.8125 L 725.773438 -18.246094 L 826.832031 141.78125 L 666.804688 242.839844 Z M 565.75 82.8125 " clip-rule="nonzero"/></clipPath><clipPath id="cc97062b77"><path d="M 565.75 82.8125 L 725.773438 -18.246094 L 826.832031 141.78125 L 666.804688 242.839844 Z M 565.75 82.8125 " clip-rule="nonzero"/></clipPath><clipPath id="52f5c5042e"><path d="M 565.75 82.8125 L 725.773438 -18.246094 L 826.832031 141.78125 L 666.804688 242.839844 Z M 565.75 82.8125 " clip-rule="nonzero"/></clipPath><clipPath id="e65517f3b5"><path d="M 655 98 L 665 98 L 665 120 L 655 120 Z M 655 98 " clip-rule="nonzero"/></clipPath><clipPath id="942054b523"><path d="M 565.75 82.8125 L 725.773438 -18.246094 L 826.832031 141.78125 L 666.804688 242.839844 Z M 565.75 82.8125 " clip-rule="nonzero"/></clipPath><clipPath id="583a8321b7"><path d="M 565.75 82.8125 L 725.773438 -18.246094 L 826.832031 141.78125 L 666.804688 242.839844 Z M 565.75 82.8125 " clip-rule="nonzero"/></clipPath><clipPath id="31e32622b5"><path d="M 565.75 82.8125 L 725.773438 -18.246094 L 826.832031 141.78125 L 666.804688 242.839844 Z M 565.75 82.8125 " clip-rule="nonzero"/></clipPath><clipPath id="791e62f6f3"><path d="M 666 80 L 677 80 L 677 100 L 666 100 Z M 666 80 " clip-rule="nonzero"/></clipPath><clipPath id="3863d15414"><path d="M 565.75 82.8125 L 725.773438 -18.246094 L 826.832031 141.78125 L 666.804688 242.839844 Z M 565.75 82.8125 " clip-rule="nonzero"/></clipPath><clipPath id="f1956cfd7f"><path d="M 565.75 82.8125 L 725.773438 -18.246094 L 826.832031 141.78125 L 666.804688 242.839844 Z M 565.75 82.8125 " clip-rule="nonzero"/></clipPath><clipPath id="91cd86592d"><path d="M 565.75 82.8125 L 725.773438 -18.246094 L 826.832031 141.78125 L 666.804688 242.839844 Z M 565.75 82.8125 " clip-rule="nonzero"/></clipPath><clipPath id="10196289ab"><path d="M 660 88 L 671 88 L 671 110 L 660 110 Z M 660 88 " clip-rule="nonzero"/></clipPath><clipPath id="ff850b0f04"><path d="M 565.75 82.8125 L 725.773438 -18.246094 L 826.832031 141.78125 L 666.804688 242.839844 Z M 565.75 82.8125 " clip-rule="nonzero"/></clipPath><clipPath id="b196617df8"><path d="M 565.75 82.8125 L 725.773438 -18.246094 L 826.832031 141.78125 L 666.804688 242.839844 Z M 565.75 82.8125 " clip-rule="nonzero"/></clipPath><clipPath id="9f31481143"><path d="M 565.75 82.8125 L 725.773438 -18.246094 L 826.832031 141.78125 L 666.804688 242.839844 Z M 565.75 82.8125 " clip-rule="nonzero"/></clipPath><clipPath id="0d615b12e1"><path d="M 644 19 L 791 19 L 791 207 L 644 207 Z M 644 19 " clip-rule="nonzero"/></clipPath><clipPath id="636178f396"><path d="M 565.75 82.8125 L 725.773438 -18.246094 L 826.832031 141.78125 L 666.804688 242.839844 Z M 565.75 82.8125 " clip-rule="nonzero"/></clipPath><clipPath id="1926ffcc49"><path d="M 565.75 82.8125 L 725.773438 -18.246094 L 826.832031 141.78125 L 666.804688 242.839844 Z M 565.75 82.8125 " clip-rule="nonzero"/></clipPath><clipPath id="e133983787"><path d="M 565.75 82.8125 L 725.773438 -18.246094 L 826.832031 141.78125 L 666.804688 242.839844 Z M 565.75 82.8125 " clip-rule="nonzero"/></clipPath><clipPath id="5e740b3989"><path d="M 653.570312 79.878906 L 679.15625 79.878906 L 679.15625 122.214844 L 653.570312 122.214844 Z M 653.570312 79.878906 " clip-rule="nonzero"/></clipPath><clipPath id="a98a5d525a"><path d="M 655.652344 116.402344 C 659.738281 107.195312 661.703125 104.144531 663.152344 102.335938 C 664.132812 101.09375 664.960938 100.785156 665.996094 99.492188 C 667.597656 97.472656 670.597656 93.335938 671.269531 90.957031 C 671.683594 89.460938 670.960938 86.976562 671.167969 86.925781 C 671.375 86.875 672.976562 89.871094 672.71875 91.476562 C 672.355469 93.699219 668.734375 96.078125 667.082031 98.613281 C 665.425781 101.144531 663.875 104.558594 662.890625 106.78125 C 662.21875 108.230469 661.703125 109.160156 661.445312 110.453125 C 661.1875 111.746094 660.875 114.230469 661.445312 114.539062 C 662.117188 114.847656 664.238281 112.988281 665.582031 111.589844 C 667.441406 109.625 669.511719 104.921875 670.90625 103.371094 C 671.578125 102.59375 671.992188 102.179688 672.71875 101.921875 C 673.492188 101.664062 674.683594 101.664062 675.457031 101.871094 C 676.078125 102.078125 676.597656 102.4375 677.007812 102.902344 C 677.421875 103.371094 677.785156 103.9375 677.890625 104.558594 C 678.042969 105.335938 678.042969 106.367188 677.578125 107.300781 C 676.90625 108.644531 674.476562 110.765625 673.132812 111.4375 C 672.253906 111.851562 671.375 111.902344 670.699219 111.851562 C 670.234375 111.796875 669.925781 111.746094 669.511719 111.488281 C 668.941406 111.125 668.117188 110.402344 667.804688 109.679688 C 667.496094 108.953125 667.390625 107.921875 667.496094 107.246094 C 667.546875 106.78125 667.753906 106.421875 667.960938 106.058594 C 668.167969 105.695312 668.375 105.335938 668.734375 105.074219 C 669.253906 104.664062 670.339844 104.25 671.011719 104.144531 C 671.476562 104.09375 671.839844 104.09375 672.304688 104.25 C 672.925781 104.457031 673.90625 105.023438 674.371094 105.644531 C 674.835938 106.265625 675.148438 107.195312 675.148438 107.972656 C 675.148438 108.746094 674.785156 109.78125 674.425781 110.351562 C 674.164062 110.765625 673.90625 110.972656 673.492188 111.230469 C 672.925781 111.539062 671.890625 111.953125 671.113281 111.902344 C 670.339844 111.851562 669.40625 111.539062 668.789062 111.023438 C 668.167969 110.503906 667.703125 109.523438 667.496094 108.902344 C 667.339844 108.4375 667.390625 108.074219 667.441406 107.660156 C 667.496094 107.246094 667.496094 106.886719 667.753906 106.421875 C 668.269531 105.488281 670.289062 103.785156 671.21875 103.007812 C 671.785156 102.492188 672.097656 102.128906 672.71875 101.921875 C 673.441406 101.664062 674.683594 101.664062 675.457031 101.871094 C 676.078125 102.078125 676.597656 102.386719 677.007812 102.902344 C 677.527344 103.523438 677.941406 104.714844 677.992188 105.488281 C 678.042969 106.160156 677.835938 106.886719 677.578125 107.300781 C 677.371094 107.558594 677.0625 107.507812 676.75 107.816406 C 675.769531 108.800781 673.804688 112.882812 672.511719 114.902344 C 671.527344 116.402344 670.753906 117.695312 669.769531 118.832031 C 668.890625 119.867188 668.0625 120.898438 666.875 121.46875 C 665.53125 122.089844 663.359375 122.347656 661.910156 122.039062 C 660.617188 121.777344 659.480469 120.898438 658.394531 120.125 C 657.257812 119.296875 655.964844 118.417969 655.1875 117.125 C 654.308594 115.675781 653.84375 113.453125 653.6875 111.746094 C 653.53125 110.300781 653.585938 108.953125 653.945312 107.558594 C 654.359375 106.058594 655.289062 104.402344 656.167969 103.164062 C 656.945312 102.023438 658.082031 101.613281 658.910156 100.320312 C 660.101562 98.507812 660.71875 94.785156 661.859375 92.769531 C 662.738281 91.269531 663.925781 90.492188 664.753906 89.148438 C 665.582031 87.699219 665.996094 85.839844 666.769531 84.390625 C 667.441406 83.097656 667.960938 81.652344 668.996094 80.925781 C 670.082031 80.203125 671.839844 79.890625 673.183594 79.996094 C 674.527344 80.097656 676.078125 80.617188 677.007812 81.445312 C 677.992188 82.324219 678.613281 83.824219 678.921875 85.117188 C 679.234375 86.460938 679.027344 88.011719 678.921875 89.460938 C 678.820312 90.90625 678.871094 92.304688 678.355469 93.855469 C 677.683594 95.976562 676.183594 98.25 674.527344 100.730469 C 672.304688 103.988281 667.910156 107.765625 665.789062 111.332031 C 663.976562 114.332031 663.511719 118.933594 662.011719 120.433594 C 661.238281 121.210938 660.253906 121.417969 659.480469 121.519531 C 658.859375 121.570312 658.238281 121.46875 657.667969 121.160156 C 656.996094 120.796875 656.066406 119.917969 655.757812 119.140625 C 655.445312 118.367188 655.652344 116.402344 655.652344 116.402344 " clip-rule="nonzero"/></clipPath><clipPath id="4201ca4512"><path d="M 712.726562 102.875 L 737.902344 102.875 L 737.902344 146.167969 L 712.726562 146.167969 Z M 712.726562 102.875 " clip-rule="nonzero"/></clipPath><clipPath id="fbeabfa823"><path d="M 713.464844 131.085938 C 716.257812 126.433594 717.191406 119.710938 718.636719 116.140625 C 719.773438 113.402344 721.066406 111.179688 722.414062 109.109375 C 723.550781 107.351562 724.585938 105.542969 725.929688 104.507812 C 727.066406 103.679688 728.359375 103.164062 729.652344 103.007812 C 730.945312 102.851562 732.601562 102.902344 733.738281 103.628906 C 735.082031 104.507812 736.21875 106.523438 736.738281 108.488281 C 737.410156 111.074219 737.203125 115.054688 736.269531 118.054688 C 735.339844 121.105469 731.980469 124.210938 730.996094 126.640625 C 730.375 128.191406 730.6875 129.535156 730.117188 130.777344 C 729.601562 131.964844 728.410156 132.742188 727.738281 133.929688 C 727.066406 135.171875 726.757812 136.828125 726.136719 138.171875 C 725.566406 139.414062 725.101562 140.5 724.171875 141.636719 C 722.980469 143.03125 720.5 145.050781 719.207031 145.667969 C 718.484375 146.03125 718.070312 146.136719 717.398438 146.082031 C 716.621094 146.03125 715.429688 145.566406 714.8125 145.050781 C 714.292969 144.636719 713.984375 144.117188 713.828125 143.496094 C 713.621094 142.722656 713.570312 141.53125 713.878906 140.757812 C 714.191406 139.980469 715.585938 138.636719 715.742188 138.742188 C 715.949219 138.84375 714.035156 143.292969 713.726562 143.238281 C 713.414062 143.1875 713.519531 140.652344 713.671875 139.308594 C 713.878906 137.757812 714.34375 136.363281 715.019531 134.398438 C 716.105469 131.34375 718.277344 126.484375 719.980469 122.96875 C 721.480469 119.867188 722.464844 115.933594 724.53125 114.382812 C 726.136719 113.195312 728.980469 112.625 730.375 113.195312 C 731.515625 113.660156 732.1875 115.109375 732.703125 116.609375 C 733.425781 118.726562 733.21875 122.503906 733.066406 125.089844 C 732.910156 127.3125 732.804688 130 731.980469 131.242188 C 731.410156 132.070312 730.429688 132.484375 729.652344 132.691406 C 729.03125 132.84375 728.359375 132.742188 727.789062 132.585938 C 727.222656 132.429688 726.601562 132.121094 726.1875 131.65625 C 725.671875 131.085938 725.257812 130.15625 725 129.121094 C 724.636719 127.570312 724.53125 125.191406 725 123.125 C 725.566406 120.640625 727.6875 117.847656 728.667969 115.417969 C 729.496094 113.296875 729.859375 110.609375 730.632812 109.367188 C 731.046875 108.695312 731.515625 108.386719 732.03125 108.074219 C 732.546875 107.765625 733.167969 107.609375 733.789062 107.609375 C 734.566406 107.609375 735.753906 107.921875 736.425781 108.488281 C 737.097656 109.058594 737.511719 109.886719 737.71875 110.917969 C 738.082031 112.574219 737.824219 115.675781 737.355469 117.589844 C 736.996094 119.195312 736.324219 120.125 735.597656 121.726562 C 734.617188 124.054688 733.066406 128.449219 731.875 130.15625 C 731.253906 131.035156 730.789062 131.550781 730.066406 131.863281 C 729.34375 132.171875 728.257812 132.171875 727.582031 132.070312 C 727.117188 131.964844 726.808594 131.757812 726.445312 131.550781 C 726.085938 131.34375 725.773438 131.140625 725.515625 130.726562 C 725.152344 130.15625 724.738281 129.070312 724.636719 128.398438 C 724.585938 127.933594 724.636719 127.621094 724.792969 127.15625 C 725.050781 126.535156 725.722656 125.554688 726.238281 125.140625 C 726.601562 124.828125 726.859375 124.675781 727.324219 124.570312 C 727.945312 124.417969 729.082031 124.363281 729.808594 124.625 C 730.53125 124.882812 731.359375 125.503906 731.773438 126.175781 C 732.1875 126.847656 732.394531 127.933594 732.394531 128.605469 C 732.394531 129.070312 732.289062 129.378906 732.082031 129.792969 C 731.773438 130.363281 731.101562 131.292969 730.429688 131.65625 C 729.753906 132.019531 728.773438 132.226562 727.996094 132.121094 C 727.222656 132.019531 726.289062 131.449219 725.773438 131.035156 C 725.410156 130.726562 725.203125 130.464844 725.050781 130.054688 C 724.792969 129.433594 724.585938 128.554688 724.6875 127.570312 C 724.792969 126.175781 725.515625 124.3125 726.289062 122.503906 C 727.222656 120.226562 729.703125 117.175781 730.167969 115.003906 C 730.480469 113.558594 729.859375 112.109375 730.015625 111.074219 C 730.117188 110.351562 730.273438 109.886719 730.632812 109.367188 C 731.101562 108.746094 732.03125 107.921875 732.859375 107.714844 C 733.6875 107.507812 734.824219 107.660156 735.597656 108.023438 C 736.375 108.386719 737.152344 109.265625 737.511719 109.988281 C 737.824219 110.558594 737.875 111.023438 737.769531 111.851562 C 737.511719 113.816406 734.875 118.054688 733.890625 121.3125 C 732.910156 124.519531 732.960938 129.640625 731.980469 131.242188 C 731.566406 131.914062 731.101562 132.121094 730.53125 132.378906 C 729.960938 132.636719 729.289062 132.792969 728.667969 132.742188 C 728.050781 132.691406 727.429688 132.535156 726.910156 132.226562 C 726.394531 131.914062 725.878906 131.449219 725.566406 130.933594 C 725.257812 130.414062 725.101562 130 725 129.121094 C 724.738281 127.105469 723.914062 119.867188 725.359375 118.726562 C 726.34375 117.953125 729.703125 118.625 730.222656 119.660156 C 730.945312 121.105469 727.375 124.777344 725.878906 128.191406 C 723.757812 132.949219 721.171875 143.964844 719.207031 145.667969 C 718.585938 146.238281 718.015625 146.082031 717.398438 146.082031 C 716.777344 146.082031 716.105469 145.875 715.585938 145.566406 C 715.070312 145.257812 714.550781 144.84375 714.242188 144.324219 C 713.933594 143.808594 713.621094 143.238281 713.621094 142.566406 C 713.570312 141.792969 713.828125 140.757812 714.34375 139.929688 C 714.964844 138.894531 716.3125 138.378906 717.398438 137.136719 C 719.050781 135.222656 721.171875 131.8125 722.671875 129.019531 C 724.066406 126.382812 724.945312 122.96875 726.136719 120.898438 C 726.910156 119.503906 728.050781 118.882812 728.515625 117.640625 C 729.03125 116.347656 729.289062 113.296875 728.980469 113.195312 C 728.515625 113.039062 725.824219 118.109375 724.894531 120.796875 C 723.964844 123.539062 724.222656 126.847656 723.292969 129.433594 C 722.414062 131.757812 720.757812 134.449219 719.722656 135.636719 C 719.207031 136.257812 718.84375 136.570312 718.328125 136.828125 C 717.808594 137.085938 717.191406 137.292969 716.515625 137.242188 C 715.742188 137.1875 714.550781 136.773438 713.933594 136.207031 C 713.3125 135.636719 712.792969 134.601562 712.742188 133.722656 C 712.691406 132.898438 713.464844 131.085938 713.464844 131.085938 " clip-rule="nonzero"/></clipPath><clipPath id="d7db85835e"><path d="M 613.710938 29.597656 L 779.1875 29.597656 L 779.1875 195.074219 L 613.710938 195.074219 Z M 613.710938 29.597656 " clip-rule="nonzero"/></clipPath><clipPath id="7d3f07266b"><path d="M 652 26 L 710 26 L 710 129 L 652 129 Z M 652 26 " clip-rule="nonzero"/></clipPath><clipPath id="93bf918d22"><path d="M 732.148438 99.960938 L 660.195312 130.292969 L 627.253906 52.144531 L 699.207031 21.8125 Z M 732.148438 99.960938 " clip-rule="nonzero"/></clipPath><clipPath id="1ee566ec4e"><path d="M 732.148438 99.960938 L 660.195312 130.292969 L 627.253906 52.144531 L 699.207031 21.8125 Z M 732.148438 99.960938 " clip-rule="nonzero"/></clipPath><clipPath id="899bd8e3ad"><path d="M 679 97 L 737 97 L 737 201 L 679 201 Z M 679 97 " clip-rule="nonzero"/></clipPath><clipPath id="f64ab7d937"><path d="M 656.761719 127.378906 L 728.433594 96.394531 L 762.085938 174.238281 L 690.410156 205.222656 Z M 656.761719 127.378906 " clip-rule="nonzero"/></clipPath><clipPath id="69bd2dfeba"><path d="M 656.761719 127.378906 L 728.433594 96.394531 L 762.085938 174.238281 L 690.410156 205.222656 Z M 656.761719 127.378906 " clip-rule="nonzero"/></clipPath></defs><rect x="-144" width="1728" fill="#ffffff" y="-22.5" height="270" fill-opacity="1"/><rect x="-144" width="1728" fill="#ffffff" y="-22.5" height="270" fill-opacity="1"/><g fill="#f46b17" fill-opacity="1"><g transform="translate(100.722645, 163.122615)"><g><path d="M 58.296875 2.265625 C 42.140625 2.265625 29.519531 -2.523438 20.4375 -12.109375 C 11.351562 -21.703125 6.8125 -35.332031 6.8125 -53 C 6.8125 -64.601562 8.804688 -74.566406 12.796875 -82.890625 C 16.785156 -91.222656 22.382812 -97.53125 29.59375 -101.8125 C 36.8125 -106.101562 45.164062 -108.25 54.65625 -108.25 C 60.40625 -108.25 66.207031 -106.585938 72.0625 -103.265625 C 74.289062 -102.046875 76.515625 -100.429688 78.734375 -98.421875 C 80.453125 -101.035156 82.21875 -103.101562 84.03125 -104.625 C 85.84375 -105.9375 86.851562 -106.640625 87.0625 -106.734375 L 90.84375 -106.734375 L 90.84375 -77.96875 L 84.78125 -77.96875 C 83.46875 -82.8125 81.5 -87.203125 78.875 -91.140625 C 76.457031 -94.984375 73.457031 -98.164062 69.875 -100.6875 C 66.289062 -103.207031 62.175781 -104.46875 57.53125 -104.46875 C 50.570312 -104.46875 44.796875 -100.429688 40.203125 -92.359375 C 35.609375 -84.285156 33.3125 -71.164062 33.3125 -53 C 33.3125 -34.519531 35.804688 -21.316406 40.796875 -13.390625 C 45.796875 -5.472656 52.632812 -1.515625 61.3125 -1.515625 C 66.0625 -1.515625 70.582031 -2.847656 74.875 -5.515625 C 79.164062 -8.191406 82.644531 -11.75 85.3125 -16.1875 C 87.988281 -20.632812 89.328125 -25.332031 89.328125 -30.28125 L 93.109375 -30.28125 C 93.109375 -24.53125 91.566406 -19.15625 88.484375 -14.15625 C 85.410156 -9.15625 81.222656 -5.164062 75.921875 -2.1875 C 70.628906 0.78125 64.753906 2.265625 58.296875 2.265625 Z M 58.296875 2.265625 "/></g></g></g><g fill="#f46b17" fill-opacity="1"><g transform="translate(199.140202, 163.122615)"><g><path d="M 46.171875 2.265625 C 33.660156 2.265625 23.847656 -1.289062 16.734375 -8.40625 C 9.617188 -15.519531 6.0625 -25.335938 6.0625 -37.859375 C 6.0625 -50.367188 9.617188 -60.179688 16.734375 -67.296875 C 23.847656 -74.410156 33.660156 -77.96875 46.171875 -77.96875 C 58.691406 -77.96875 68.507812 -74.410156 75.625 -67.296875 C 82.738281 -60.179688 86.296875 -50.367188 86.296875 -37.859375 C 86.296875 -25.335938 82.738281 -15.519531 75.625 -8.40625 C 68.507812 -1.289062 58.691406 2.265625 46.171875 2.265625 Z M 46.171875 -0.75 C 50.210938 -0.75 53.617188 -3.578125 56.390625 -9.234375 C 59.171875 -14.890625 60.5625 -24.429688 60.5625 -37.859375 C 60.5625 -51.273438 59.171875 -60.8125 56.390625 -66.46875 C 53.617188 -72.125 50.210938 -74.953125 46.171875 -74.953125 C 42.140625 -74.953125 38.734375 -72.125 35.953125 -66.46875 C 33.179688 -60.8125 31.796875 -51.273438 31.796875 -37.859375 C 31.796875 -24.429688 33.179688 -14.890625 35.953125 -9.234375 C 38.734375 -3.578125 42.140625 -0.75 46.171875 -0.75 Z M 46.171875 -0.75 "/></g></g></g><g fill="#f46b17" fill-opacity="1"><g transform="translate(291.501299, 163.122615)"><g><path d="M 35.578125 2.265625 C 26.597656 2.265625 19.6875 0.347656 14.84375 -3.484375 C 10 -7.316406 7.578125 -12.210938 7.578125 -18.171875 C 7.578125 -22.109375 8.429688 -25.992188 10.140625 -29.828125 C 10.847656 -31.640625 11.757812 -33.304688 12.875 -34.828125 C 17.007812 -35.835938 21.5 -36.742188 26.34375 -37.546875 C 37.25 -39.367188 46.890625 -40.476562 55.265625 -40.875 L 55.265625 -45.421875 C 55.265625 -56.628906 53.898438 -64.351562 51.171875 -68.59375 C 48.453125 -72.832031 44.265625 -74.953125 38.609375 -74.953125 C 36.484375 -74.953125 34.664062 -74.695312 33.15625 -74.1875 L 31.03125 -73.4375 L 31.03125 -50.71875 L 29.0625 -50.265625 C 27.445312 -50.066406 26.085938 -49.96875 24.984375 -49.96875 C 21.546875 -49.96875 18.789062 -51 16.71875 -53.0625 C 14.65625 -55.132812 13.625 -57.882812 13.625 -61.3125 C 13.625 -65.957031 15.96875 -69.894531 20.65625 -73.125 C 25.351562 -76.351562 32.347656 -77.96875 41.640625 -77.96875 C 49.515625 -77.96875 56.300781 -76.578125 62 -73.796875 C 67.707031 -71.023438 72.046875 -67.191406 75.015625 -62.296875 C 77.992188 -57.398438 79.484375 -51.773438 79.484375 -45.421875 L 79.484375 -4.546875 L 88.578125 -2.265625 L 88.578125 0 L 74.953125 0 C 68.890625 0 64.191406 -1.867188 60.859375 -5.609375 C 59.453125 -7.117188 58.34375 -9.035156 57.53125 -11.359375 C 56.125 -8.835938 54.457031 -6.566406 52.53125 -4.546875 C 47.988281 -0.00390625 42.335938 2.265625 35.578125 2.265625 Z M 41.640625 -3.03125 C 45.367188 -3.03125 48.75 -5.046875 51.78125 -9.078125 C 52.894531 -10.597656 54.054688 -12.617188 55.265625 -15.140625 L 55.265625 -37.09375 C 50.617188 -37.09375 46.175781 -36.84375 41.9375 -36.34375 C 38.8125 -35.9375 36.691406 -35.679688 35.578125 -35.578125 C 35.078125 -34.472656 34.570312 -32.957031 34.0625 -31.03125 C 33.050781 -27.195312 32.546875 -23.414062 32.546875 -19.6875 C 32.546875 -14.03125 33.40625 -9.835938 35.125 -7.109375 C 36.84375 -4.390625 39.015625 -3.03125 41.640625 -3.03125 Z M 41.640625 -3.03125 "/></g></g></g><g fill="#f46b17" fill-opacity="1"><g transform="translate(383.105357, 163.122615)"><g><path d="M 46.9375 2.265625 C 34.019531 2.265625 23.976562 -1.289062 16.8125 -8.40625 C 9.644531 -15.519531 6.0625 -25.335938 6.0625 -37.859375 C 6.0625 -50.367188 9.644531 -60.179688 16.8125 -67.296875 C 23.976562 -74.410156 34.019531 -77.96875 46.9375 -77.96875 C 56.21875 -77.96875 63.207031 -76.351562 67.90625 -73.125 C 72.601562 -69.894531 74.953125 -65.957031 74.953125 -61.3125 C 74.953125 -57.882812 73.914062 -55.132812 71.84375 -53.0625 C 69.769531 -51 67.019531 -49.96875 63.59375 -49.96875 C 62.175781 -49.96875 60.757812 -50.066406 59.34375 -50.265625 L 57.53125 -50.71875 L 57.53125 -73.4375 L 55.421875 -74.1875 C 53.898438 -74.695312 52.082031 -74.953125 49.96875 -74.953125 C 44.207031 -74.953125 39.738281 -72.222656 36.5625 -66.765625 C 33.382812 -61.316406 31.796875 -51.679688 31.796875 -37.859375 C 31.796875 -24.429688 33.382812 -15.015625 36.5625 -9.609375 C 39.738281 -4.210938 44.207031 -1.515625 49.96875 -1.515625 C 53.90625 -1.515625 57.5625 -2.445312 60.9375 -4.3125 C 64.320312 -6.175781 67 -8.648438 68.96875 -11.734375 C 70.9375 -14.816406 71.921875 -17.972656 71.921875 -21.203125 L 75.703125 -21.203125 C 75.703125 -17.160156 74.488281 -13.320312 72.0625 -9.6875 C 69.644531 -6.050781 66.265625 -3.148438 61.921875 -0.984375 C 57.585938 1.179688 52.59375 2.265625 46.9375 2.265625 Z M 46.9375 2.265625 "/></g></g></g><g fill="#f46b17" fill-opacity="1"><g transform="translate(463.353511, 163.122615)"><g><path d="M 6.0625 -2.265625 L 15.140625 -4.546875 L 15.140625 -101.4375 L 6.0625 -103.71875 L 6.0625 -105.984375 L 25.734375 -105.984375 C 34.816406 -105.984375 39.359375 -101.441406 39.359375 -92.359375 L 39.359375 -68.140625 C 40.878906 -70.148438 42.445312 -71.765625 44.0625 -72.984375 C 48.394531 -76.304688 53.390625 -77.96875 59.046875 -77.96875 C 64.703125 -77.96875 69.773438 -76.78125 74.265625 -74.40625 C 78.753906 -72.039062 82.257812 -68.9375 84.78125 -65.09375 C 87.3125 -61.257812 88.578125 -57.226562 88.578125 -53 L 88.578125 -4.546875 L 97.65625 -2.265625 L 97.65625 0 L 77.96875 0 C 68.882812 0 64.34375 -4.539062 64.34375 -13.625 L 64.34375 -53 C 64.34375 -59.351562 63.207031 -64.21875 60.9375 -67.59375 C 58.664062 -70.976562 56.019531 -72.671875 53 -72.671875 C 49.15625 -72.671875 45.722656 -70.65625 42.703125 -66.625 C 41.390625 -64.90625 40.273438 -62.882812 39.359375 -60.5625 L 39.359375 -4.546875 L 48.453125 -2.265625 L 48.453125 0 L 6.0625 0 Z M 6.0625 -2.265625 "/></g></g></g><g fill="#f46b17" fill-opacity="1"><g transform="translate(564.043412, 163.122615)"><g/></g></g><g fill="#f46b17" fill-opacity="1"><g transform="translate(606.438659, 163.122615)"><g/></g></g><g fill="#000000" fill-opacity="1"><g transform="translate(648.834458, 163.122615)"><g/></g></g><g fill="#000000" fill-opacity="1"><g transform="translate(691.229704, 163.122615)"><g/></g></g><g fill="#000000" fill-opacity="1"><g transform="translate(733.624951, 163.122615)"><g/></g></g><g fill="#000000" fill-opacity="1"><g transform="translate(776.020198, 163.122615)"><g/></g></g><g fill="#009693" fill-opacity="1"><g transform="translate(818.416549, 163.122615)"><g><path d="M 21.203125 -87.0625 L 21.203125 -6.8125 L 33.3125 -2.265625 L 33.3125 0 L 4.546875 0 L 4.546875 -2.265625 L 16.65625 -6.8125 L 16.65625 -101.4375 L 7.578125 -103.71875 L 7.578125 -105.984375 L 26.5 -105.984375 C 31.75 -105.984375 35.910156 -104.894531 38.984375 -102.71875 C 42.066406 -100.550781 44.71875 -97.347656 46.9375 -93.109375 L 79.9375 -29.984375 L 105.234375 -93.109375 C 106.941406 -97.554688 109.257812 -100.8125 112.1875 -102.875 C 115.113281 -104.945312 119.609375 -105.984375 125.671875 -105.984375 L 141.5625 -105.984375 L 141.5625 -103.71875 L 132.484375 -101.4375 L 132.484375 -4.546875 L 141.5625 -2.265625 L 141.5625 0 L 98.421875 0 L 98.421875 -2.265625 L 107.5 -4.546875 L 107.5 -87.0625 L 71.921875 1.515625 L 67.375 1.515625 Z M 21.203125 -87.0625 "/></g></g></g><g fill="#009693" fill-opacity="1"><g transform="translate(967.556985, 163.122615)"><g><path d="M 35.578125 2.265625 C 26.597656 2.265625 19.6875 0.347656 14.84375 -3.484375 C 10 -7.316406 7.578125 -12.210938 7.578125 -18.171875 C 7.578125 -22.109375 8.429688 -25.992188 10.140625 -29.828125 C 10.847656 -31.640625 11.757812 -33.304688 12.875 -34.828125 C 17.007812 -35.835938 21.5 -36.742188 26.34375 -37.546875 C 37.25 -39.367188 46.890625 -40.476562 55.265625 -40.875 L 55.265625 -45.421875 C 55.265625 -56.628906 53.898438 -64.351562 51.171875 -68.59375 C 48.453125 -72.832031 44.265625 -74.953125 38.609375 -74.953125 C 36.484375 -74.953125 34.664062 -74.695312 33.15625 -74.1875 L 31.03125 -73.4375 L 31.03125 -50.71875 L 29.0625 -50.265625 C 27.445312 -50.066406 26.085938 -49.96875 24.984375 -49.96875 C 21.546875 -49.96875 18.789062 -51 16.71875 -53.0625 C 14.65625 -55.132812 13.625 -57.882812 13.625 -61.3125 C 13.625 -65.957031 15.96875 -69.894531 20.65625 -73.125 C 25.351562 -76.351562 32.347656 -77.96875 41.640625 -77.96875 C 49.515625 -77.96875 56.300781 -76.578125 62 -73.796875 C 67.707031 -71.023438 72.046875 -67.191406 75.015625 -62.296875 C 77.992188 -57.398438 79.484375 -51.773438 79.484375 -45.421875 L 79.484375 -4.546875 L 88.578125 -2.265625 L 88.578125 0 L 74.953125 0 C 68.890625 0 64.191406 -1.867188 60.859375 -5.609375 C 59.453125 -7.117188 58.34375 -9.035156 57.53125 -11.359375 C 56.125 -8.835938 54.457031 -6.566406 52.53125 -4.546875 C 47.988281 -0.00390625 42.335938 2.265625 35.578125 2.265625 Z M 41.640625 -3.03125 C 45.367188 -3.03125 48.75 -5.046875 51.78125 -9.078125 C 52.894531 -10.597656 54.054688 -12.617188 55.265625 -15.140625 L 55.265625 -37.09375 C 50.617188 -37.09375 46.175781 -36.84375 41.9375 -36.34375 C 38.8125 -35.9375 36.691406 -35.679688 35.578125 -35.578125 C 35.078125 -34.472656 34.570312 -32.957031 34.0625 -31.03125 C 33.050781 -27.195312 32.546875 -23.414062 32.546875 -19.6875 C 32.546875 -14.03125 33.40625 -9.835938 35.125 -7.109375 C 36.84375 -4.390625 39.015625 -3.03125 41.640625 -3.03125 Z M 41.640625 -3.03125 "/></g></g></g><g fill="#009693" fill-opacity="1"><g transform="translate(1059.161043, 163.122615)"><g><path d="M 45.421875 2.265625 C 38.753906 2.265625 32.972656 1.054688 28.078125 -1.359375 C 23.191406 -3.785156 19.4375 -7.117188 16.8125 -11.359375 C 14.1875 -15.597656 12.875 -20.390625 12.875 -25.734375 L 12.875 -71.921875 L 2.265625 -71.921875 L 2.265625 -75.703125 L 12.875 -75.703125 L 12.875 -83.28125 C 12.875 -92.363281 17.414062 -96.90625 26.5 -96.90625 L 37.09375 -96.90625 L 37.09375 -75.703125 L 58.296875 -75.703125 L 58.296875 -71.921875 L 37.09375 -71.921875 L 37.09375 -25.734375 C 37.09375 -16.453125 38.050781 -10.09375 39.96875 -6.65625 C 41.882812 -3.226562 44.710938 -1.515625 48.453125 -1.515625 C 52.085938 -1.515625 55.265625 -3.28125 57.984375 -6.8125 C 60.710938 -10.34375 62.078125 -15.140625 62.078125 -21.203125 L 65.859375 -21.203125 C 65.859375 -13.734375 63.988281 -7.953125 60.25 -3.859375 C 56.519531 0.222656 51.578125 2.265625 45.421875 2.265625 Z M 45.421875 2.265625 "/></g></g></g><g fill="#009693" fill-opacity="1"><g transform="translate(1127.296304, 163.122615)"><g><path d="M 6.0625 -2.265625 L 15.140625 -4.546875 L 15.140625 -71.15625 L 6.0625 -73.4375 L 6.0625 -75.703125 L 19.6875 -75.703125 C 25.632812 -75.703125 30.328125 -73.785156 33.765625 -69.953125 C 35.078125 -68.429688 36.1875 -66.5625 37.09375 -64.34375 C 38.601562 -66.5625 40.472656 -68.582031 42.703125 -70.40625 C 47.742188 -74.4375 53.394531 -76.453125 59.65625 -76.453125 C 65 -76.453125 69.007812 -75.21875 71.6875 -72.75 C 74.363281 -70.28125 75.703125 -66.722656 75.703125 -62.078125 C 75.703125 -58.640625 74.664062 -55.882812 72.59375 -53.8125 C 70.53125 -51.75 67.78125 -50.71875 64.34375 -50.71875 C 62.9375 -50.71875 61.523438 -50.820312 60.109375 -51.03125 L 58.296875 -51.484375 L 58.296875 -72.671875 C 53.140625 -72.671875 48.441406 -70.65625 44.203125 -66.625 C 42.191406 -64.601562 40.578125 -62.582031 39.359375 -60.5625 L 39.359375 -4.546875 L 48.453125 -2.265625 L 48.453125 0 L 6.0625 0 Z M 6.0625 -2.265625 "/></g></g></g><g fill="#009693" fill-opacity="1"><g transform="translate(1203.759189, 163.122615)"><g><path d="M 6.0625 -2.265625 L 15.140625 -4.546875 L 15.140625 -71.15625 L 6.0625 -73.4375 L 6.0625 -75.703125 L 25.734375 -75.703125 C 34.816406 -75.703125 39.359375 -71.160156 39.359375 -62.078125 L 39.359375 -4.546875 L 48.453125 -2.265625 L 48.453125 0 L 6.0625 0 Z M 25.734375 -84.78125 C 22.703125 -84.78125 20.175781 -85.789062 18.15625 -87.8125 C 16.144531 -89.832031 15.140625 -92.359375 15.140625 -95.390625 C 15.140625 -98.410156 16.144531 -100.929688 18.15625 -102.953125 C 20.175781 -104.972656 22.703125 -105.984375 25.734375 -105.984375 C 28.765625 -105.984375 31.285156 -104.972656 33.296875 -102.953125 C 35.316406 -100.929688 36.328125 -98.410156 36.328125 -95.390625 C 36.328125 -92.359375 35.316406 -89.832031 33.296875 -87.8125 C 31.285156 -85.789062 28.765625 -84.78125 25.734375 -84.78125 Z M 25.734375 -84.78125 "/></g></g></g><g fill="#009693" fill-opacity="1"><g transform="translate(1255.239137, 163.122615)"><g><path d="M 1.515625 -2.265625 L 13.625 -6.8125 L 32.40625 -30.890625 L 6.8125 -71.15625 L -0.75 -73.4375 L -0.75 -75.703125 L 19.6875 -75.703125 C 24.53125 -75.703125 28.460938 -74.613281 31.484375 -72.4375 C 34.515625 -70.269531 37.394531 -67.066406 40.125 -62.828125 L 47.84375 -50.5625 L 62.078125 -68.890625 L 50.71875 -73.4375 L 50.71875 -75.703125 L 79.484375 -75.703125 L 79.484375 -73.4375 L 67.375 -68.890625 L 50.109375 -46.9375 L 77.21875 -4.546875 L 84.78125 -2.265625 L 84.78125 0 L 64.34375 0 C 59.5 0 55.5625 -1.054688 52.53125 -3.171875 C 49.507812 -5.296875 46.632812 -8.53125 43.90625 -12.875 L 34.828125 -27.109375 L 18.921875 -6.8125 L 30.28125 -2.265625 L 30.28125 0 L 1.515625 0 Z M 1.515625 -2.265625 "/></g></g></g><g clip-path="url(#3fdb9ae38d)"><g clip-path="url(#0f035b4105)"><path fill="#ffffff" d="M 652.753906 110.777344 L 671.371094 110.777344 L 671.371094 140.738281 L 652.753906 140.738281 Z M 652.753906 110.777344 " fill-opacity="1" fill-rule="nonzero"/></g></g><g clip-path="url(#bc9e8f52b4)"><g clip-path="url(#6746a67d83)"><path fill="#ffffff" d="M 652.339844 93.816406 L 681.710938 93.816406 L 681.710938 139.941406 L 652.339844 139.941406 Z M 652.339844 93.816406 " fill-opacity="1" fill-rule="nonzero"/></g></g><g clip-path="url(#7dee979c1b)"><g clip-path="url(#c10fadc075)"><path fill="#ffffff" d="M 711.394531 116.828125 L 740.5625 116.828125 L 740.5625 163.992188 L 711.394531 163.992188 Z M 711.394531 116.828125 " fill-opacity="1" fill-rule="nonzero"/></g></g><g clip-path="url(#15e6ba60f0)"><g clip-path="url(#ba30e3d1e8)"><g clip-path="url(#09b93869cc)"><g clip-path="url(#cce9c4971f)"><path fill="#f46b17" d="M 726.570312 116.144531 C 723.320312 112.972656 721.214844 116.359375 721.425781 119.519531 C 721.597656 122.136719 723.195312 125.859375 723.96875 128.347656 C 724.734375 130.804688 725.515625 133.257812 726.296875 135.714844 C 728.132812 133.078125 729.832031 130.300781 731.332031 127.441406 C 729.640625 122.4375 727.320312 116.875 726.570312 116.144531 " fill-opacity="1" fill-rule="nonzero"/></g></g></g></g><g clip-path="url(#44594410af)"><g clip-path="url(#fd5399fcfe)"><g clip-path="url(#c8851d1644)"><g clip-path="url(#90cb1cbaa6)"><path fill="#f46b17" d="M 733.929688 105.738281 C 730.457031 102.144531 728.035156 105.800781 728.164062 109.277344 C 728.265625 112.164062 729.871094 116.171875 730.640625 118.929688 C 731.230469 121.039062 731.832031 123.144531 732.433594 125.25 C 734.421875 121.132812 735.988281 116.871094 736.996094 112.613281 C 736 109.644531 734.445312 106.269531 733.929688 105.738281 " fill-opacity="1" fill-rule="nonzero"/></g></g></g></g><g clip-path="url(#c4f31d6e0b)"><g clip-path="url(#b341608e77)"><g clip-path="url(#6afb8b69ee)"><g clip-path="url(#5ae403dd61)"><path fill="#f46b17" d="M 715.75 129.445312 C 715.921875 132.066406 717.519531 135.785156 718.292969 138.273438 C 718.847656 140.058594 719.417969 141.839844 719.984375 143.621094 C 721.902344 141.519531 723.75 139.253906 725.484375 136.859375 C 723.855469 132.070312 721.621094 126.777344 720.894531 126.070312 C 717.640625 122.902344 715.539062 126.289062 715.75 129.445312 " fill-opacity="1" fill-rule="nonzero"/></g></g></g></g><g clip-path="url(#edb4b15f86)"><g clip-path="url(#af337e3e7d)"><g clip-path="url(#cc97062b77)"><g clip-path="url(#52f5c5042e)"><path fill="#f46b17" d="M 731.402344 163.019531 C 739.496094 148.023438 747.195312 129.621094 747.285156 103.121094 C 747.292969 101.363281 747.429688 99.558594 747.03125 97.820312 C 746.847656 97.027344 746.542969 96.136719 745.851562 95.636719 C 744.929688 94.96875 744.058594 95.328125 743.328125 96.074219 C 743.117188 96.285156 742.925781 96.511719 742.742188 96.742188 C 740.90625 99.046875 739.949219 101.921875 739.882812 104.867188 C 739.566406 119.238281 731.257812 134.988281 720.992188 145.9375 C 716.640625 150.585938 715.492188 152.382812 712.339844 154.949219 C 710.3125 156.59375 708.5 156.710938 706.546875 155.300781 C 701.886719 151.9375 707.371094 140.949219 704.792969 134.882812 C 703.507812 131.875 701.671875 128.828125 698.546875 127.484375 C 697.269531 126.933594 694.09375 126.09375 693.261719 127.730469 C 692.65625 128.917969 693.816406 132.539062 693.824219 133.988281 C 693.867188 140.414062 692.476562 146.984375 690.175781 152.957031 C 686.648438 162.128906 675.777344 171.953125 669.625 189.527344 C 652.558594 183.699219 637.289062 172.226562 626.910156 155.789062 C 602.761719 117.550781 614.183594 66.976562 652.421875 42.832031 C 657.355469 39.714844 662.496094 37.195312 667.757812 35.246094 C 671.195312 31.695312 674.804688 28.433594 678.445312 25.457031 C 681.785156 22.730469 685.144531 20.25 688.433594 17.996094 C 673.730469 19.1875 659.089844 23.847656 645.753906 32.273438 C 601.726562 60.074219 588.507812 117.78125 616.046875 161.972656 C 628.199219 181.46875 646.285156 194.980469 666.492188 201.65625 C 666.496094 201.65625 666.492188 201.660156 666.492188 201.660156 C 666.761719 201.75 667.035156 201.828125 667.304688 201.917969 C 667.75 202.058594 668.199219 202.203125 668.648438 202.339844 C 669.011719 202.449219 669.375 202.554688 669.734375 202.660156 C 670.1875 202.792969 670.640625 202.921875 671.097656 203.046875 C 671.445312 203.140625 671.796875 203.234375 672.144531 203.328125 C 672.632812 203.457031 673.121094 203.578125 673.613281 203.699219 C 673.929688 203.777344 674.246094 203.855469 674.558594 203.929688 C 675.132812 204.0625 675.710938 204.191406 676.289062 204.316406 C 676.519531 204.367188 676.753906 204.417969 676.988281 204.46875 C 677.089844 204.488281 677.195312 204.511719 677.300781 204.535156 C 677.300781 204.53125 677.300781 204.53125 677.300781 204.527344 C 677.335938 204.535156 677.367188 204.542969 677.402344 204.546875 C 683.707031 205.824219 690.257812 204.417969 695.558594 200.769531 C 698.777344 198.558594 702.070312 196.117188 705.335938 193.449219 C 715.179688 185.402344 724.78125 175.28125 731.402344 163.019531 " fill-opacity="1" fill-rule="nonzero"/></g></g></g></g><g clip-path="url(#e65517f3b5)"><g clip-path="url(#942054b523)"><g clip-path="url(#583a8321b7)"><g clip-path="url(#31e32622b5)"><path fill="#009693" d="M 664.125 114.851562 C 664.023438 111.964844 662.417969 107.960938 661.648438 105.199219 C 661.058594 103.09375 660.457031 100.988281 659.855469 98.882812 C 657.867188 103 656.300781 107.261719 655.292969 111.519531 C 656.289062 114.488281 657.84375 117.863281 658.359375 118.394531 C 661.832031 121.988281 664.253906 118.332031 664.125 114.851562 " fill-opacity="1" fill-rule="nonzero"/></g></g></g></g><g clip-path="url(#791e62f6f3)"><g clip-path="url(#3863d15414)"><g clip-path="url(#f1956cfd7f)"><g clip-path="url(#91cd86592d)"><path fill="#009693" d="M 676.539062 94.6875 C 676.367188 92.066406 674.769531 88.34375 673.996094 85.855469 C 673.441406 84.070312 672.871094 82.289062 672.304688 80.507812 C 670.386719 82.613281 668.539062 84.878906 666.804688 87.273438 C 668.433594 92.058594 670.667969 97.355469 671.394531 98.058594 C 674.648438 101.230469 676.75 97.84375 676.539062 94.6875 " fill-opacity="1" fill-rule="nonzero"/></g></g></g></g><g clip-path="url(#10196289ab)"><g clip-path="url(#ff850b0f04)"><g clip-path="url(#b196617df8)"><g clip-path="url(#9f31481143)"><path fill="#009693" d="M 665.71875 107.988281 C 668.96875 111.15625 671.074219 107.773438 670.863281 104.613281 C 670.691406 101.996094 669.09375 98.273438 668.320312 95.785156 C 667.554688 93.324219 666.773438 90.871094 665.992188 88.417969 C 664.15625 91.054688 662.460938 93.828125 660.957031 96.691406 C 662.648438 101.695312 664.96875 107.257812 665.71875 107.988281 " fill-opacity="1" fill-rule="nonzero"/></g></g></g></g><g clip-path="url(#0d615b12e1)"><g clip-path="url(#636178f396)"><g clip-path="url(#1926ffcc49)"><g clip-path="url(#e133983787)"><path fill="#009693" d="M 725.792969 22.472656 C 725.796875 22.472656 725.796875 22.472656 725.796875 22.46875 C 725.75 22.457031 725.707031 22.441406 725.660156 22.429688 C 724.875 22.167969 724.085938 21.921875 723.292969 21.683594 C 723.15625 21.644531 723.019531 21.605469 722.878906 21.566406 C 722.214844 21.367188 721.546875 21.175781 720.875 20.996094 C 720.628906 20.925781 720.382812 20.867188 720.136719 20.800781 C 719.558594 20.652344 718.980469 20.503906 718.398438 20.363281 C 718.148438 20.300781 717.898438 20.242188 717.648438 20.183594 C 717.355469 20.117188 717.058594 20.039062 716.761719 19.976562 C 716.761719 19.976562 716.761719 19.984375 716.761719 19.984375 C 716.148438 19.847656 715.535156 19.714844 714.917969 19.589844 C 708.601562 18.308594 702.035156 19.710938 696.726562 23.363281 C 693.507812 25.574219 690.21875 28.011719 686.957031 30.679688 C 677.109375 38.726562 667.507812 48.851562 660.890625 61.113281 C 652.796875 76.109375 645.09375 94.511719 645.003906 121.011719 C 644.996094 122.765625 644.863281 124.574219 645.257812 126.308594 C 645.441406 127.105469 645.75 127.992188 646.4375 128.492188 C 647.359375 129.164062 648.230469 128.800781 648.960938 128.058594 C 649.171875 127.847656 649.363281 127.617188 649.546875 127.386719 C 651.382812 125.082031 652.339844 122.214844 652.40625 119.273438 C 652.722656 104.898438 661.03125 89.144531 671.296875 78.191406 C 675.648438 73.546875 676.796875 71.746094 679.949219 69.183594 C 681.976562 67.539062 683.789062 67.417969 685.742188 68.832031 C 690.402344 72.195312 684.917969 83.183594 687.5 89.246094 C 688.777344 92.257812 690.617188 95.304688 693.742188 96.648438 C 695.019531 97.195312 698.195312 98.035156 699.027344 96.398438 C 699.636719 95.210938 698.472656 91.589844 698.464844 90.140625 C 698.425781 83.71875 699.8125 77.148438 702.113281 71.171875 C 705.640625 62.003906 716.515625 52.175781 722.664062 34.597656 C 739.734375 40.429688 755 51.90625 765.378906 68.34375 C 789.527344 106.582031 778.105469 157.152344 739.867188 181.300781 C 735.332031 184.164062 730.625 186.523438 725.808594 188.398438 C 722.621094 191.617188 719.304688 194.601562 715.957031 197.339844 C 711.953125 200.613281 707.910156 203.535156 704.011719 206.121094 C 718.355469 204.9375 732.632812 200.445312 745.699219 192.378906 C 790.003906 165.035156 803.789062 106.4375 776.285156 62.230469 C 764.132812 42.691406 746.027344 29.15625 725.792969 22.472656 " fill-opacity="1" fill-rule="nonzero"/></g></g></g></g><g clip-path="url(#5e740b3989)"><g clip-path="url(#a98a5d525a)"><path fill="#ffffff" d="M 651.621094 77.925781 L 680.992188 77.925781 L 680.992188 124.050781 L 651.621094 124.050781 Z M 651.621094 77.925781 " fill-opacity="1" fill-rule="nonzero"/></g></g><g clip-path="url(#4201ca4512)"><g clip-path="url(#fbeabfa823)"><path fill="#ffffff" d="M 710.675781 100.9375 L 739.839844 100.9375 L 739.839844 148.105469 L 710.675781 148.105469 Z M 710.675781 100.9375 " fill-opacity="1" fill-rule="nonzero"/></g></g><g clip-path="url(#d7db85835e)"><path fill="#ffffff" d="M 779.1875 112.335938 C 779.1875 113.691406 779.15625 115.042969 779.089844 116.394531 C 779.023438 117.746094 778.921875 119.097656 778.789062 120.445312 C 778.65625 121.792969 778.492188 123.136719 778.292969 124.476562 C 778.09375 125.816406 777.863281 127.148438 777.597656 128.476562 C 777.335938 129.804688 777.039062 131.125 776.710938 132.441406 C 776.378906 133.753906 776.019531 135.058594 775.625 136.351562 C 775.234375 137.648438 774.808594 138.933594 774.351562 140.210938 C 773.894531 141.484375 773.410156 142.746094 772.890625 144 C 772.371094 145.25 771.824219 146.488281 771.246094 147.710938 C 770.667969 148.933594 770.058594 150.144531 769.417969 151.339844 C 768.78125 152.53125 768.113281 153.710938 767.417969 154.871094 C 766.722656 156.035156 765.996094 157.175781 765.246094 158.304688 C 764.492188 159.429688 763.714844 160.535156 762.90625 161.625 C 762.101562 162.710938 761.265625 163.777344 760.410156 164.824219 C 759.550781 165.871094 758.664062 166.894531 757.753906 167.898438 C 756.847656 168.902344 755.914062 169.882812 754.957031 170.839844 C 754 171.796875 753.019531 172.730469 752.015625 173.640625 C 751.011719 174.550781 749.984375 175.433594 748.9375 176.292969 C 747.894531 177.152344 746.824219 177.984375 745.738281 178.792969 C 744.648438 179.597656 743.542969 180.378906 742.417969 181.128906 C 741.292969 181.882812 740.148438 182.605469 738.988281 183.304688 C 737.824219 184 736.648438 184.667969 735.453125 185.304688 C 734.257812 185.941406 733.050781 186.550781 731.824219 187.128906 C 730.601562 187.710938 729.363281 188.257812 728.113281 188.777344 C 726.863281 189.292969 725.597656 189.78125 724.324219 190.238281 C 723.050781 190.695312 721.765625 191.117188 720.46875 191.511719 C 719.171875 191.90625 717.867188 192.265625 716.554688 192.59375 C 715.242188 192.925781 713.921875 193.21875 712.59375 193.484375 C 711.265625 193.75 709.929688 193.980469 708.589844 194.179688 C 707.25 194.378906 705.90625 194.542969 704.558594 194.675781 C 703.210938 194.808594 701.863281 194.910156 700.511719 194.976562 C 699.15625 195.042969 697.804688 195.074219 696.449219 195.074219 C 695.097656 195.074219 693.742188 195.042969 692.390625 194.976562 C 691.039062 194.910156 689.6875 194.808594 688.339844 194.675781 C 686.992188 194.542969 685.648438 194.378906 684.308594 194.179688 C 682.972656 193.980469 681.636719 193.75 680.308594 193.484375 C 678.980469 193.21875 677.660156 192.925781 676.347656 192.59375 C 675.03125 192.265625 673.726562 191.90625 672.433594 191.511719 C 671.136719 191.117188 669.851562 190.695312 668.578125 190.238281 C 667.300781 189.78125 666.039062 189.292969 664.789062 188.777344 C 663.535156 188.257812 662.300781 187.710938 661.074219 187.128906 C 659.851562 186.550781 658.640625 185.941406 657.449219 185.304688 C 656.253906 184.667969 655.074219 184 653.914062 183.304688 C 652.753906 182.605469 651.609375 181.882812 650.484375 181.128906 C 649.355469 180.378906 648.25 179.597656 647.164062 178.792969 C 646.074219 177.984375 645.007812 177.152344 643.960938 176.292969 C 642.914062 175.433594 641.890625 174.550781 640.886719 173.640625 C 639.882812 172.730469 638.902344 171.796875 637.945312 170.839844 C 636.988281 169.882812 636.054688 168.902344 635.144531 167.898438 C 634.234375 166.894531 633.351562 165.871094 632.492188 164.824219 C 631.632812 163.777344 630.800781 162.710938 629.992188 161.625 C 629.1875 160.535156 628.40625 159.429688 627.65625 158.304688 C 626.902344 157.175781 626.179688 156.035156 625.484375 154.871094 C 624.785156 153.710938 624.121094 152.53125 623.480469 151.339844 C 622.84375 150.144531 622.234375 148.933594 621.65625 147.710938 C 621.078125 146.488281 620.527344 145.25 620.011719 144 C 619.492188 142.746094 619.003906 141.484375 618.546875 140.210938 C 618.09375 138.933594 617.667969 137.648438 617.273438 136.351562 C 616.882812 135.058594 616.519531 133.753906 616.191406 132.441406 C 615.863281 131.125 615.566406 129.804688 615.300781 128.476562 C 615.039062 127.148438 614.804688 125.816406 614.605469 124.476562 C 614.410156 123.136719 614.242188 121.792969 614.109375 120.445312 C 613.976562 119.097656 613.878906 117.746094 613.8125 116.394531 C 613.746094 115.042969 613.710938 113.691406 613.710938 112.335938 C 613.710938 110.980469 613.746094 109.628906 613.8125 108.277344 C 613.878906 106.921875 613.976562 105.574219 614.109375 104.226562 C 614.242188 102.878906 614.410156 101.535156 614.605469 100.195312 C 614.804688 98.855469 615.039062 97.523438 615.300781 96.195312 C 615.566406 94.867188 615.863281 93.546875 616.191406 92.230469 C 616.519531 90.917969 616.882812 89.613281 617.273438 88.316406 C 617.667969 87.023438 618.09375 85.738281 618.546875 84.460938 C 619.003906 83.1875 619.492188 81.925781 620.011719 80.671875 C 620.527344 79.421875 621.078125 78.183594 621.65625 76.960938 C 622.234375 75.734375 622.84375 74.527344 623.480469 73.332031 C 624.121094 72.140625 624.785156 70.960938 625.484375 69.800781 C 626.179688 68.636719 626.902344 67.496094 627.65625 66.367188 C 628.40625 65.242188 629.1875 64.136719 629.992188 63.046875 C 630.800781 61.960938 631.632812 60.894531 632.492188 59.847656 C 633.351562 58.800781 634.234375 57.773438 635.144531 56.773438 C 636.054688 55.769531 636.988281 54.789062 637.945312 53.832031 C 638.902344 52.875 639.882812 51.941406 640.886719 51.03125 C 641.890625 50.121094 642.914062 49.238281 643.960938 48.378906 C 645.007812 47.519531 646.074219 46.6875 647.164062 45.878906 C 648.25 45.074219 649.355469 44.292969 650.484375 43.539062 C 651.609375 42.789062 652.753906 42.066406 653.914062 41.367188 C 655.074219 40.671875 656.253906 40.003906 657.449219 39.367188 C 658.640625 38.726562 659.851562 38.121094 661.074219 37.539062 C 662.300781 36.960938 663.535156 36.414062 664.789062 35.894531 C 666.039062 35.375 667.300781 34.890625 668.578125 34.433594 C 669.851562 33.976562 671.136719 33.554688 672.433594 33.160156 C 673.726562 32.765625 675.03125 32.40625 676.347656 32.078125 C 677.660156 31.746094 678.980469 31.449219 680.308594 31.1875 C 681.636719 30.921875 682.972656 30.691406 684.308594 30.492188 C 685.648438 30.292969 686.992188 30.128906 688.339844 29.996094 C 689.6875 29.863281 691.039062 29.761719 692.390625 29.695312 C 693.742188 29.628906 695.097656 29.597656 696.449219 29.597656 C 697.804688 29.597656 699.15625 29.628906 700.511719 29.695312 C 701.863281 29.761719 703.210938 29.863281 704.558594 29.996094 C 705.90625 30.128906 707.25 30.292969 708.589844 30.492188 C 709.929688 30.691406 711.265625 30.921875 712.59375 31.1875 C 713.921875 31.449219 715.242188 31.746094 716.554688 32.078125 C 717.867188 32.40625 719.171875 32.765625 720.46875 33.160156 C 721.765625 33.554688 723.050781 33.976562 724.324219 34.433594 C 725.597656 34.890625 726.863281 35.375 728.113281 35.894531 C 729.363281 36.414062 730.601562 36.960938 731.824219 37.539062 C 733.050781 38.121094 734.257812 38.726562 735.453125 39.367188 C 736.648438 40.003906 737.824219 40.671875 738.988281 41.367188 C 740.148438 42.066406 741.292969 42.789062 742.417969 43.539062 C 743.542969 44.292969 744.648438 45.074219 745.738281 45.878906 C 746.824219 46.6875 747.894531 47.519531 748.9375 48.378906 C 749.984375 49.238281 751.011719 50.121094 752.015625 51.03125 C 753.019531 51.941406 754 52.875 754.957031 53.832031 C 755.914062 54.789062 756.847656 55.769531 757.753906 56.773438 C 758.664062 57.773438 759.550781 58.800781 760.410156 59.847656 C 761.265625 60.894531 762.101562 61.960938 762.90625 63.046875 C 763.714844 64.136719 764.492188 65.242188 765.246094 66.367188 C 765.996094 67.496094 766.722656 68.636719 767.417969 69.800781 C 768.113281 70.960938 768.78125 72.140625 769.417969 73.332031 C 770.058594 74.527344 770.667969 75.734375 771.246094 76.960938 C 771.824219 78.183594 772.371094 79.421875 772.890625 80.671875 C 773.410156 81.925781 773.894531 83.1875 774.351562 84.460938 C 774.808594 85.738281 775.234375 87.023438 775.625 88.316406 C 776.019531 89.613281 776.378906 90.917969 776.710938 92.230469 C 777.039062 93.546875 777.335938 94.867188 777.597656 96.195312 C 777.863281 97.523438 778.09375 98.855469 778.292969 100.195312 C 778.492188 101.535156 778.65625 102.878906 778.789062 104.226562 C 778.921875 105.574219 779.023438 106.921875 779.089844 108.277344 C 779.15625 109.628906 779.1875 110.980469 779.1875 112.335938 Z M 779.1875 112.335938 " fill-opacity="1" fill-rule="nonzero"/></g><g clip-path="url(#7d3f07266b)"><g clip-path="url(#93bf918d22)"><g clip-path="url(#1ee566ec4e)"><path fill="#009693" d="M 664.230469 128.367188 C 677.144531 119.691406 689.160156 109.105469 697.65625 95.949219 C 705.882812 83.214844 710.449219 68.246094 709.347656 53.019531 C 708.746094 44.734375 701.253906 26.757812 699.503906 26.917969 C 683.648438 28.359375 669.917969 39.019531 662.214844 52.601562 C 654.253906 66.632812 652.09375 83.195312 652.925781 99.109375 C 653.457031 109.234375 655.617188 119.238281 660.917969 127.984375 C 661.609375 129.125 663.28125 129.003906 664.230469 128.367188 Z M 664.230469 128.367188 " fill-opacity="1" fill-rule="nonzero"/></g></g></g><g clip-path="url(#899bd8e3ad)"><g clip-path="url(#f64ab7d937)"><g clip-path="url(#69bd2dfeba)"><path fill="#f46b17" d="M 724.417969 98.355469 C 711.585938 107.148438 699.667969 117.839844 691.289062 131.074219 C 683.179688 143.886719 678.746094 158.894531 679.988281 174.113281 C 680.664062 182.390625 688.320312 200.296875 690.070312 200.121094 C 705.910156 198.535156 719.542969 187.75 727.125 174.097656 C 734.957031 159.996094 736.964844 143.414062 735.988281 127.511719 C 735.363281 117.386719 733.113281 107.40625 727.734375 98.710938 C 727.03125 97.574219 725.363281 97.710938 724.417969 98.355469 Z M 724.417969 98.355469 " fill-opacity="1" fill-rule="nonzero"/></g></g></g></svg>