<svg xmlns="http://www.w3.org/2000/svg" xmlns:xlink="http://www.w3.org/1999/xlink" width="1920" zoomAndPan="magnify" viewBox="0 0 1440 225" height="300" preserveAspectRatio="xMidYMid meet" version="1.0"><defs><g/></defs><rect x="-144" width="1728" fill="#ffffff" y="-22.5" height="270" fill-opacity="1"/><rect x="-144" width="1728" fill="#ffffff" y="-22.5" height="270" fill-opacity="1"/><g fill="#000000" fill-opacity="1"><g transform="translate(197.047727, 146.848374)"><g><path d="M 33.359375 -57.515625 L 40.296875 -57.515625 C 50.4375 -57.515625 62.84375 -61.375 62.84375 -75.390625 C 62.84375 -89.40625 50.578125 -93.40625 40.296875 -93.40625 L 33.359375 -93.40625 C 31.21875 -93.40625 30.015625 -91.40625 30.015625 -90.0625 L 30.015625 -60.84375 C 30.015625 -58.71875 31.890625 -57.515625 33.359375 -57.515625 Z M 36.6875 -64.1875 L 36.6875 -86.734375 L 40.296875 -86.734375 C 49.640625 -86.734375 56.171875 -83.9375 56.171875 -75.390625 C 56.171875 -66.859375 49.765625 -64.1875 40.296875 -64.1875 Z M 11.609375 -106.75 L 48.296875 -106.75 C 68.59375 -106.75 82.59375 -96.734375 82.59375 -76.1875 C 82.59375 -55.515625 68.3125 -44.171875 48.296875 -44.171875 L 33.359375 -44.171875 C 31.21875 -44.171875 30.015625 -42.171875 30.015625 -40.828125 L 30.015625 -3.328125 L 11.609375 -3.328125 Z M 8.265625 -113.421875 C 6.8125 -113.421875 4.9375 -112.09375 4.9375 -110.078125 L 4.9375 0 C 4.9375 1.46875 6.140625 3.328125 8.265625 3.328125 L 33.359375 3.328125 C 34.6875 3.328125 36.6875 2.140625 36.6875 0 L 36.6875 -37.5 L 48.296875 -37.5 C 71.125 -37.5 89.265625 -51.375 89.265625 -76.1875 C 89.265625 -101.140625 70.859375 -113.421875 48.296875 -113.421875 Z M 8.265625 -113.421875 "/></g></g></g><g fill="#000000" fill-opacity="1"><g transform="translate(289.381662, 146.848374)"><g><path d="M 30.015625 -106.75 L 30.015625 -22.015625 C 30.015625 -19.875 31.890625 -18.6875 33.359375 -18.6875 L 67.921875 -18.6875 L 67.921875 -3.328125 L 11.609375 -3.328125 L 11.609375 -106.75 Z M 36.6875 -110.078125 C 36.6875 -111.421875 35.359375 -113.421875 33.359375 -113.421875 L 8.265625 -113.421875 C 6.8125 -113.421875 4.9375 -112.09375 4.9375 -110.078125 L 4.9375 0 C 4.9375 1.46875 6.140625 3.328125 8.265625 3.328125 L 71.25 3.328125 C 72.59375 3.328125 74.59375 2.140625 74.59375 0 L 74.59375 -22.015625 C 74.59375 -23.34375 73.25 -25.359375 71.25 -25.359375 L 36.6875 -25.359375 Z M 36.6875 -110.078125 "/></g></g></g><g fill="#000000" fill-opacity="1"><g transform="translate(367.171669, 146.848374)"><g><path d="M 70.59375 -106.75 L 112.21875 -3.328125 L 92.609375 -3.328125 L 85.265625 -23.078125 C 84.734375 -24.421875 83.53125 -25.359375 82.203125 -25.359375 L 40.296875 -25.359375 C 38.828125 -25.359375 37.625 -24.421875 37.09375 -23.078125 L 29.75 -3.328125 L 10.140625 -3.328125 L 51.78125 -106.75 Z M 75.921875 -111.28125 C 75.390625 -112.484375 74.1875 -113.421875 72.859375 -113.421875 L 49.640625 -113.421875 C 48.296875 -113.421875 46.96875 -112.484375 46.4375 -111.28125 L 2 -1.203125 C 0 3.875 5.203125 3.328125 5.203125 3.328125 L 32.15625 3.328125 C 33.5 3.328125 34.6875 2.53125 35.234375 1.203125 L 42.5625 -18.6875 L 79.796875 -18.6875 L 87.140625 1.203125 C 87.671875 2.53125 88.875 3.328125 90.34375 3.328125 L 117.296875 3.328125 C 122.625 3.328125 120.359375 -1.203125 120.359375 -1.203125 Z M 76.71875 -45.234375 L 64.1875 -77.265625 C 64.1875 -77.265625 60.1875 -83.265625 57.90625 -77.125 L 45.640625 -45.109375 C 45.640625 -45.109375 43.5 -40.703125 48.84375 -40.703125 L 73.65625 -40.703125 C 73.65625 -40.703125 78.59375 -40.171875 76.71875 -45.234375 Z M 68.71875 -47.375 L 53.640625 -47.375 L 61.109375 -66.71875 Z M 68.71875 -47.375 "/></g></g></g><g fill="#000000" fill-opacity="1"><g transform="translate(489.660953, 146.848374)"><g><path d="M 90.875 -79.125 L 92.734375 -78.734375 C 94.203125 -78.859375 95.40625 -79.921875 95.671875 -81.265625 L 101.015625 -105.953125 C 101.28125 -107.28125 100.75 -108.625 99.546875 -109.421875 C 99.015625 -109.953125 90.34375 -115.421875 66.046875 -115.421875 C 33.09375 -115.421875 3.0625 -88.46875 3.0625 -54.84375 C 3.0625 -21.21875 33.21875 5.34375 66.046875 5.34375 C 90.34375 5.34375 98.875 0 99.671875 -0.53125 C 100.609375 -1.203125 101.28125 -2.671875 101.015625 -4 L 95.671875 -28.6875 C 94.734375 -32.953125 91.40625 -31.21875 90.875 -30.953125 C 90.609375 -30.828125 81.65625 -26.015625 69.921875 -26.015625 C 46.5625 -26.015625 36.96875 -41.90625 36.96875 -55.109375 C 36.96875 -68.046875 46.5625 -84.0625 69.921875 -84.0625 C 81.53125 -84.0625 90.609375 -79.125 90.875 -79.125 Z M 69.921875 -19.34375 C 78.59375 -19.34375 85.796875 -21.609375 90.0625 -23.21875 L 93.9375 -5.078125 C 90.34375 -3.734375 81.9375 -1.328125 66.046875 -1.328125 C 36.5625 -1.328125 9.734375 -25.359375 9.734375 -54.84375 C 9.734375 -84.328125 36.421875 -108.75 66.046875 -108.75 C 82.0625 -108.75 90.46875 -106.21875 93.9375 -104.875 L 90.0625 -86.734375 C 85.53125 -88.46875 78.59375 -90.734375 69.921875 -90.734375 C 42.703125 -90.734375 30.296875 -71.390625 30.296875 -55.109375 C 30.296875 -38.5625 42.703125 -19.34375 69.921875 -19.34375 Z M 69.921875 -19.34375 "/></g></g></g><g fill="#000000" fill-opacity="1"><g transform="translate(593.603309, 146.848374)"><g><path d="M 67.921875 -106.75 L 67.921875 -91.40625 L 33.359375 -91.40625 C 31.21875 -91.40625 30.015625 -89.40625 30.015625 -88.0625 L 30.015625 -66.1875 C 30.015625 -64.046875 31.890625 -62.84375 33.359375 -62.84375 L 66.3125 -62.84375 L 66.3125 -47.5 L 33.359375 -47.5 C 31.21875 -47.5 30.015625 -45.5 30.015625 -44.171875 L 30.015625 -22.015625 C 30.015625 -19.875 31.890625 -18.6875 33.359375 -18.6875 L 67.921875 -18.6875 L 67.921875 -3.328125 L 11.609375 -3.328125 L 11.609375 -106.75 Z M 74.59375 -110.078125 C 74.59375 -111.421875 73.25 -113.421875 71.25 -113.421875 L 8.265625 -113.421875 C 6.8125 -113.421875 4.9375 -112.09375 4.9375 -110.078125 L 4.9375 0 C 4.9375 1.46875 6.140625 3.328125 8.265625 3.328125 L 71.25 3.328125 C 72.59375 3.328125 74.59375 2.140625 74.59375 0 L 74.59375 -22.015625 C 74.59375 -23.34375 73.25 -25.359375 71.25 -25.359375 L 36.6875 -25.359375 L 36.6875 -40.828125 L 69.65625 -40.828125 C 70.984375 -40.828125 72.984375 -42.03125 72.984375 -44.171875 L 72.984375 -66.1875 C 72.984375 -67.515625 71.65625 -69.515625 69.65625 -69.515625 L 36.6875 -69.515625 L 36.6875 -84.734375 L 71.25 -84.734375 C 72.59375 -84.734375 74.59375 -85.9375 74.59375 -88.0625 Z M 74.59375 -110.078125 "/></g></g></g><g fill="#000000" fill-opacity="1"><g transform="translate(672.193967, 146.848374)"><g><path d="M 30.015625 -44.171875 L 30.015625 -3.328125 L 11.609375 -3.328125 L 11.609375 -106.75 L 30.015625 -106.75 L 30.015625 -66.1875 C 30.015625 -64.046875 31.890625 -62.84375 33.359375 -62.84375 L 68.859375 -62.84375 C 70.859375 -62.84375 72.1875 -64.71875 72.1875 -66.1875 L 72.1875 -106.75 L 90.609375 -106.75 L 90.609375 -3.328125 L 72.1875 -3.328125 L 72.1875 -44.171875 C 72.1875 -46.171875 70.1875 -47.5 68.859375 -47.5 L 33.359375 -47.5 C 31.21875 -47.5 30.015625 -45.5 30.015625 -44.171875 Z M 36.6875 -40.828125 L 65.515625 -40.828125 L 65.515625 0 C 65.515625 1.46875 66.71875 3.328125 68.859375 3.328125 L 93.9375 3.328125 C 95.28125 3.328125 97.28125 2.140625 97.28125 0 L 97.28125 -110.078125 C 97.28125 -111.421875 95.9375 -113.421875 93.9375 -113.421875 L 68.859375 -113.421875 C 67.390625 -113.421875 65.515625 -112.09375 65.515625 -110.078125 L 65.515625 -69.515625 L 36.6875 -69.515625 L 36.6875 -110.078125 C 36.6875 -111.421875 35.359375 -113.421875 33.359375 -113.421875 L 8.265625 -113.421875 C 6.8125 -113.421875 4.9375 -112.09375 4.9375 -110.078125 L 4.9375 0 C 4.9375 1.46875 6.140625 3.328125 8.265625 3.328125 L 33.359375 3.328125 C 34.6875 3.328125 36.6875 2.140625 36.6875 0 Z M 36.6875 -40.828125 "/></g></g></g><g fill="#000000" fill-opacity="1"><g transform="translate(774.668632, 146.848374)"><g><path d="M 9.875 -55.109375 C 9.875 -85.40625 33.625 -108.75 62.046875 -108.75 C 90.609375 -108.75 114.09375 -85.40625 114.09375 -55.109375 C 114.09375 -24.546875 91.671875 -1.328125 62.046875 -1.328125 C 31.359375 -1.328125 9.875 -24.546875 9.875 -55.109375 Z M 3.203125 -55.109375 C 3.203125 -21.21875 27.484375 5.34375 62.046875 5.34375 C 95.546875 5.34375 120.765625 -21.21875 120.765625 -55.109375 C 120.765625 -89 94.46875 -115.421875 62.046875 -115.421875 C 29.75 -115.421875 3.203125 -89 3.203125 -55.109375 Z M 30.296875 -55.109375 C 30.296875 -37.765625 38.96875 -18.953125 62.046875 -18.953125 C 84.46875 -18.953125 93.671875 -37.765625 93.671875 -55.109375 C 93.671875 -72.453125 83.9375 -91.265625 62.046875 -91.265625 C 40.171875 -91.265625 30.296875 -72.453125 30.296875 -55.109375 Z M 36.96875 -55.109375 C 36.96875 -70.453125 45.109375 -84.59375 62.046875 -84.59375 C 79 -84.59375 87 -70.453125 87 -55.109375 C 87 -39.5 79.53125 -25.625 62.046875 -25.625 C 43.90625 -25.625 36.96875 -39.5 36.96875 -55.109375 Z M 36.96875 -55.109375 "/></g></g></g><g fill="#000000" fill-opacity="1"><g transform="translate(899.159288, 146.848374)"><g><path d="M 30.015625 -106.75 L 30.015625 -22.015625 C 30.015625 -19.875 31.890625 -18.6875 33.359375 -18.6875 L 67.921875 -18.6875 L 67.921875 -3.328125 L 11.609375 -3.328125 L 11.609375 -106.75 Z M 36.6875 -110.078125 C 36.6875 -111.421875 35.359375 -113.421875 33.359375 -113.421875 L 8.265625 -113.421875 C 6.8125 -113.421875 4.9375 -112.09375 4.9375 -110.078125 L 4.9375 0 C 4.9375 1.46875 6.140625 3.328125 8.265625 3.328125 L 71.25 3.328125 C 72.59375 3.328125 74.59375 2.140625 74.59375 0 L 74.59375 -22.015625 C 74.59375 -23.34375 73.25 -25.359375 71.25 -25.359375 L 36.6875 -25.359375 Z M 36.6875 -110.078125 "/></g></g></g><g fill="#000000" fill-opacity="1"><g transform="translate(976.949295, 146.848374)"><g><path d="M 11.609375 -106.75 L 40.171875 -106.75 C 68.59375 -106.75 92.34375 -85.140625 92.34375 -55.109375 C 92.34375 -24.8125 68.71875 -3.328125 40.171875 -3.328125 L 11.609375 -3.328125 Z M 8.265625 -113.421875 C 6.8125 -113.421875 4.9375 -112.09375 4.9375 -110.078125 L 4.9375 0 C 4.9375 1.46875 6.140625 3.328125 8.265625 3.328125 L 40.171875 3.328125 C 72.0625 3.328125 99.015625 -20.953125 99.015625 -55.109375 C 99.015625 -89 71.921875 -113.421875 40.171875 -113.421875 Z M 33.359375 -19.078125 L 37.234375 -19.078125 C 57.640625 -19.078125 71.65625 -34.828125 71.921875 -54.84375 C 71.921875 -74.984375 57.78125 -91 37.234375 -91 L 33.359375 -91 C 31.21875 -91 30.015625 -89 30.015625 -87.671875 L 30.015625 -22.421875 C 30.015625 -20.28125 31.890625 -19.078125 33.359375 -19.078125 Z M 36.6875 -25.75 L 36.6875 -84.328125 L 37.234375 -84.328125 C 53.90625 -84.328125 65.25 -71.65625 65.25 -54.96875 C 65.125 -38.15625 53.78125 -25.75 37.234375 -25.75 Z M 36.6875 -25.75 "/></g></g></g><g fill="#000000" fill-opacity="1"><g transform="translate(1079.690802, 146.848374)"><g><path d="M 67.921875 -106.75 L 67.921875 -91.40625 L 33.359375 -91.40625 C 31.21875 -91.40625 30.015625 -89.40625 30.015625 -88.0625 L 30.015625 -66.1875 C 30.015625 -64.046875 31.890625 -62.84375 33.359375 -62.84375 L 66.3125 -62.84375 L 66.3125 -47.5 L 33.359375 -47.5 C 31.21875 -47.5 30.015625 -45.5 30.015625 -44.171875 L 30.015625 -22.015625 C 30.015625 -19.875 31.890625 -18.6875 33.359375 -18.6875 L 67.921875 -18.6875 L 67.921875 -3.328125 L 11.609375 -3.328125 L 11.609375 -106.75 Z M 74.59375 -110.078125 C 74.59375 -111.421875 73.25 -113.421875 71.25 -113.421875 L 8.265625 -113.421875 C 6.8125 -113.421875 4.9375 -112.09375 4.9375 -110.078125 L 4.9375 0 C 4.9375 1.46875 6.140625 3.328125 8.265625 3.328125 L 71.25 3.328125 C 72.59375 3.328125 74.59375 2.140625 74.59375 0 L 74.59375 -22.015625 C 74.59375 -23.34375 73.25 -25.359375 71.25 -25.359375 L 36.6875 -25.359375 L 36.6875 -40.828125 L 69.65625 -40.828125 C 70.984375 -40.828125 72.984375 -42.03125 72.984375 -44.171875 L 72.984375 -66.1875 C 72.984375 -67.515625 71.65625 -69.515625 69.65625 -69.515625 L 36.6875 -69.515625 L 36.6875 -84.734375 L 71.25 -84.734375 C 72.59375 -84.734375 74.59375 -85.9375 74.59375 -88.0625 Z M 74.59375 -110.078125 "/></g></g></g><g fill="#000000" fill-opacity="1"><g transform="translate(1158.281459, 146.848374)"><g><path d="M 11.609375 -106.75 L 48.4375 -106.75 C 68.71875 -106.75 82.734375 -96.734375 82.734375 -76.1875 C 82.734375 -61.921875 76.0625 -52.4375 65.78125 -47.640625 C 64.578125 -47.109375 62.71875 -45.375 64.453125 -42.828125 L 90.46875 -3.328125 L 70.859375 -3.328125 L 44.96875 -42.5625 C 44.4375 -43.5 43.234375 -44.171875 42.296875 -44.171875 L 33.359375 -44.171875 C 31.21875 -44.171875 30.015625 -42.171875 30.015625 -40.828125 L 30.015625 -3.328125 L 11.609375 -3.328125 Z M 8.265625 -113.421875 C 6.8125 -113.421875 4.9375 -112.09375 4.9375 -110.078125 L 4.9375 0 C 4.9375 1.46875 6.140625 3.328125 8.265625 3.328125 L 33.359375 3.328125 C 34.6875 3.328125 36.6875 2.140625 36.6875 0 L 36.6875 -37.5 L 40.4375 -37.5 L 66.3125 1.875 C 66.859375 2.796875 67.921875 3.328125 69.125 3.328125 L 96.734375 3.328125 C 103.140625 3.328125 99.40625 -1.734375 99.40625 -1.734375 L 72.0625 -43.359375 C 82.59375 -49.765625 89.40625 -61.109375 89.40625 -76.1875 C 89.40625 -101.140625 70.984375 -113.421875 48.4375 -113.421875 Z M 33.359375 -57.515625 L 40.4375 -57.515625 C 50.578125 -57.515625 62.984375 -61.375 62.984375 -75.390625 C 62.984375 -89.40625 50.703125 -93.40625 40.4375 -93.40625 L 33.359375 -93.40625 C 31.21875 -93.40625 30.015625 -91.40625 30.015625 -90.0625 L 30.015625 -60.84375 C 30.015625 -58.71875 31.890625 -57.515625 33.359375 -57.515625 Z M 36.6875 -64.1875 L 36.6875 -86.734375 L 40.4375 -86.734375 C 49.765625 -86.734375 56.3125 -83.9375 56.3125 -75.390625 C 56.3125 -66.859375 49.90625 -64.1875 40.4375 -64.1875 Z M 36.6875 -64.1875 "/></g></g></g></svg>